<?xml version="1.0" standalone="no"?>
<!DOCTYPE svg PUBLIC "-//W3C//DTD SVG 1.1//EN" "http://www.w3.org/Graphics/SVG/1.1/DTD/svg11.dtd" >
<svg xmlns="http://www.w3.org/2000/svg">
<metadata>
This is a custom SVG webfont generated by Font Squirrel.
Copyright   : Copyright 2011 Adobe Systems Incorporated All rights reserved
</metadata>
<defs>
<font id="MergeLight" horiz-adv-x="1175" >
<font-face units-per-em="2048" ascent="1536" descent="-512" />
<missing-glyph horiz-adv-x="606" />
<glyph unicode=" "  horiz-adv-x="606" />
<glyph unicode="&#x09;" horiz-adv-x="606" />
<glyph unicode="&#xa0;" horiz-adv-x="606" />
<glyph unicode="!" horiz-adv-x="534" d="M133 116.5q0 59.5 39 96.5t96 37q55 0 94 -37t39 -96.5t-38.5 -96t-94.5 -36.5q-57 0 -96 36.5t-39 96zM156 1292q0 98 96 99h33q96 0 96 -99l-39 -800q-2 -72 -68 -72h-10q-68 0 -67 72z" />
<glyph unicode="&#x22;" horiz-adv-x="671" d="M113 1360q-1 6 -1 11q0 52 54 52h67q27 0 43.5 -17t12.5 -46l-29 -307q-6 -53 -49 -54h-21q-43 0 -49 54zM387 1360q-1 6 -1 11q0 52 54 52h68q27 0 43 -17q13 -14 13 -35q0 -5 -1 -11l-28 -307q-6 -53 -50 -54h-20q-43 0 -49 54z" />
<glyph unicode="#" horiz-adv-x="1409" d="M20 418q0 76 78 78h217l119 376h-178q-80 0 -80 80q0 70 80 76h229q39 147 93 295q23 66 94 66h12q68 0 68 -46q0 -39 -97 -315h289l96 295q23 66 95 66h10q68 0 67 -48q0 -2 -96 -313h182q80 0 80 -76q0 -78 -80 -80h-229l-121 -376h193q78 0 78 -76q0 -70 -78 -76h-242 q-10 -29 -43 -139.5t-43 -141.5q-23 -63 -94 -63h-10q-70 0 -70 47q0 14 6 33l84 264h-289q-53 -172 -90 -278q-23 -66 -92 -66h-12q-66 0 -66 47q0 25 86 297h-166q-80 0 -80 74zM487 496h289q14 49 64.5 204.5t56.5 171.5h-289z" />
<glyph unicode="$" horiz-adv-x="1216" d="M117 186q0 76 104 103q70 -143 307 -154v518q-203 51 -303 136t-100 230.5t109.5 250t293.5 129.5v43q0 72 78 71h12q78 0 78 -71v-39q156 -10 244 -59.5t88 -112.5q0 -74 -90 -92q-66 96 -242 112v-473q195 -57 300.5 -142t105.5 -239q0 -156 -108.5 -264t-297.5 -139 v-47q0 -41 -18.5 -58.5t-59.5 -17.5h-12q-43 0 -60.5 16.5t-17.5 59.5v37q-186 6 -298.5 63t-112.5 139zM309 1028q0 -74 52.5 -120t166.5 -83v420q-100 -20 -159.5 -78.5t-59.5 -138.5zM696 147q109 25 168.5 86.5t59.5 137.5q0 90 -58.5 144t-169.5 91v-459z" />
<glyph unicode="%" horiz-adv-x="1505" d="M102 1112q0 135 82 209t197 74t195.5 -74t80.5 -209q0 -133 -80.5 -207t-195.5 -74t-197 74t-82 207zM188 125l1053 1266q26 33 56 33q21 0 44 -17q30 -24 31 -51q0 -24 -24 -51l-1053 -1264q-29 -34 -59 -34q-20 0 -41 16q-27 24 -28 51q0 24 21 51zM229 1114 q0 -78 43 -122t108.5 -44t108.5 44t43 122t-43 121t-108.5 43t-108.5 -43t-43 -121zM848 281q0 135 82 208.5t196.5 73.5t195.5 -73.5t81 -208.5q0 -133 -81 -207t-195.5 -74t-196.5 74t-82 207zM975 282.5q0 -77.5 43 -121.5t108.5 -44t108.5 44t43 121.5t-43 120.5 t-108.5 43t-108.5 -43t-43 -120.5z" />
<glyph unicode="&#x26;" horiz-adv-x="1341" d="M127 365q0 125 72.5 217t224.5 176q-96 96 -138 162.5t-42 154.5q0 137 95 235.5t253 98.5t258 -99.5t100 -236.5q0 -115 -78.5 -192.5t-228.5 -153.5l373 -397q45 84 45 194q0 63 -29 162q2 2 6 3t6 3q131 -70 132 -223q0 -127 -58 -233l71 -76l53 -60q19 -23 26 -28 q18 -23 18 -41q0 -31 -43 -31h-61q-23 0 -45.5 14.5t-60.5 52l-52 50.5q-141 -143 -397 -144q-231 0 -365.5 117t-134.5 275zM293 365q0 -102 90 -180.5t244 -78.5q201 0 303 113l-420 436q-217 -97 -217 -290zM408 1075q0 -109 155 -250q121 59 177.5 112.5t56.5 133.5 q0 82 -56.5 136.5t-146.5 54.5q-86 0 -136 -51.5t-50 -135.5z" />
<glyph unicode="'" horiz-adv-x="401" d="M113 1360q-1 6 -1 11q0 52 54 52h67q27 0 43 -17q13 -14 14 -35q0 -5 -1 -11l-29 -307q-6 -53 -49 -54h-21q-43 0 -49 54z" />
<glyph unicode="(" horiz-adv-x="714" d="M147 434v107q0 276 93.5 500.5t257.5 373.5q29 23 63 23q33 0 57.5 -24.5t24.5 -57.5q0 -39 -27 -64q-287 -270 -286 -751v-107q0 -481 286 -751q27 -20 27 -62q0 -35 -24.5 -59.5t-57.5 -24.5q-41 0 -100 64q-314 323 -314 833z" />
<glyph unicode=")" horiz-adv-x="714" d="M70 1356q0 35 24.5 58.5t59.5 23.5q14 0 25 -3t22.5 -11.5t16.5 -12.5t18.5 -18.5t17.5 -18.5q147 -150 230 -362.5t83 -470.5v-107q0 -510 -313 -833q-63 -63 -100 -64q-35 0 -59.5 24.5t-24.5 59.5q0 39 26 62q287 266 287 751v107q0 485 -287 751q-26 27 -26 64z" />
<glyph unicode="*" horiz-adv-x="1032" d="M133 1176q0 25 24.5 52t49.5 27q14 0 50 -19t104 -64l81 -52v242q0 72 74 72q76 0 76 -72v-242l44 30l57 38l50 32q31 19 51.5 27t32.5 8q25 0 48.5 -27.5t23.5 -51.5q0 -16 -17.5 -35t-52 -41.5t-64.5 -37.5l-76 -40l-62 -33q14 -16 80.5 -79.5t101.5 -104.5t35 -66 q0 -23 -25.5 -48t-50.5 -25q-16 0 -41 15t-55 46l-55 55q-24 25 -57.5 64t-43.5 49l-50 -55l-58 -63q-23 -24 -53.5 -52.5t-54.5 -42.5t-42 -14q-25 0 -48.5 26.5t-23.5 46.5q0 23 34 63t105 107l81 78q-10 4 -35 18l-39 20q-14 7 -40 22l-41 23l-36 22q-20 12 -33.5 22 t-25 21.5t-17.5 21t-6 17.5z" />
<glyph unicode="+" horiz-adv-x="1161" d="M102 510q0 68 76 68h342v342q0 76 67.5 75.5t67.5 -75.5v-342h349q76 0 75.5 -68t-75.5 -68h-349v-348q0 -76 -67.5 -76t-67.5 76v348h-342q-76 0 -76 68z" />
<glyph unicode="," horiz-adv-x="534" d="M119 -190q68 16 111.5 72.5t43.5 135.5q-16 -8 -47 -8q-41 0 -67.5 33t-26.5 78q0 55 39 92t96 37q59 0 103.5 -46t44.5 -126q0 -131 -67.5 -224.5t-162.5 -93.5q-67 1 -67 50z" />
<glyph unicode="-" horiz-adv-x="901" d="M102 602.5q0 67.5 76 67.5h545q76 0 76 -67.5t-76 -67.5h-545q-76 0 -76 67.5z" />
<glyph unicode="." horiz-adv-x="534" d="M133 116.5q0 59.5 39 96.5t96 37q55 0 94 -37t39 -96.5t-38.5 -96t-94.5 -36.5q-57 0 -96 36.5t-39 96z" />
<glyph unicode="/" horiz-adv-x="772" d="M72 82l503 1325q20 53 62 53q14 0 31 -6q45 -14 44 -55q0 -17 -7 -39l-506 -1325q-21 -53 -61 -54q-14 0 -29 7q-45 17 -45 57q0 16 8 37z" />
<glyph unicode="0" horiz-adv-x="1413" d="M123 698q0 342 166 526.5t420 184.5t417.5 -183.5t163.5 -527.5q0 -338 -164.5 -526t-416.5 -188t-419 188t-167 526zM319 698q0 -264 102.5 -410.5t287.5 -146.5q182 0 285.5 146.5t103.5 410.5q0 258 -112 404.5t-277 146.5q-170 0 -280 -146.5t-110 -404.5z" />
<glyph unicode="1" horiz-adv-x="667" d="M143 1315q0 76 84 76h211q86 0 86 -74v-1239q0 -78 -86 -78h-14q-86 0 -86 78v1159h-111q-84 0 -84 78z" />
<glyph unicode="2" horiz-adv-x="1136" d="M102 88q0 74 66 123q406 385 534.5 535.5t128.5 263.5q0 111 -76.5 177t-211.5 66q-133 0 -209 -81.5t-88 -174.5q-115 0 -115 99q0 125 117 219t315 94q211 0 323.5 -107.5t112.5 -273.5q0 -150 -104 -284t-467 -486l-106 -104h624q86 0 86 -76q0 -78 -86 -78h-760 q-84 0 -84 88z" />
<glyph unicode="3" horiz-adv-x="1177" d="M82 190q0 76 92 103q59 -156 354 -156q154 0 270.5 69.5t116.5 196.5q0 117 -108.5 177.5t-259.5 60.5h-86q-92 0 -92 74q0 80 92 80h86q127 0 212 64.5t85 176.5q0 86 -71 152.5t-212 66.5q-123 0 -201.5 -55t-107.5 -149q-109 0 -109 90t106.5 179t315.5 89 q238 0 344.5 -104.5t106.5 -245.5q0 -113 -66.5 -200t-169.5 -116q127 -27 217 -110.5t90 -222.5q0 -188 -160.5 -307t-398.5 -119q-199 0 -322.5 57t-123.5 149z" />
<glyph unicode="4" horiz-adv-x="1308" d="M102 416q0 41 31 82l194 238l246 295l197 233q4 6 20 24l22 27l22 24q14 16 24 24l24 16q13 9 27.5 13.5t28.5 4.5h4q76 0 76 -84v-805h106q82 0 82 -78q0 -76 -82 -76h-106v-278q0 -41 -19.5 -58.5t-66.5 -17.5h-12q-45 0 -62.5 17.5t-17.5 58.5v278h-664q-74 1 -74 62z M322 508h518v618z" />
<glyph unicode="5" horiz-adv-x="1148" d="M90 190q0 74 86 103q27 -80 128.5 -118t236.5 -38q154 0 260 80t106 223q0 133 -93 199t-236 66q-111 0 -256 -43q-18 -6 -35 -7q-39 0 -65.5 26t-26.5 67v10l45 557q4 41 21.5 58.5t62.5 17.5h626q82 0 82 -78t-82 -78h-565l-31 -408q98 29 246 29q205 0 336 -104.5 t131 -305.5q0 -205 -153.5 -333.5t-393.5 -128.5q-197 0 -313.5 54t-116.5 152z" />
<glyph unicode="6" horiz-adv-x="1286" d="M123 623q0 143 31.5 275t98 251t189.5 189.5t289 70.5q174 0 275.5 -70.5t101.5 -146.5q0 -63 -88 -86q-20 33 -36.5 52.5t-50.5 47t-86 42t-122 14.5q-111 0 -198 -53.5t-136 -139.5t-73.5 -182t-24.5 -195q59 84 170.5 139.5t236.5 55.5q240 0 351.5 -119t111.5 -311 q0 -195 -128 -334t-378 -139q-266 0 -400 170t-134 469zM311 471q0 -51 19.5 -106.5t58.5 -108.5t109.5 -87t158.5 -34q176 0 256 89t80 229q0 289 -336 288q-147 0 -246.5 -79.5t-99.5 -190.5z" />
<glyph unicode="7" horiz-adv-x="1144" d="M82 1311q0 80 82 80h815q84 0 84 -80q0 -35 -74 -176l-543 -1076q-31 -59 -104 -59h-31q-66 0 -65 47q0 14 6 31.5t11 30t19.5 36t20.5 35.5l543 1053h-682q-82 0 -82 78z" />
<glyph unicode="8" horiz-adv-x="1241" d="M102 383q0 135 82 222t199 126q-231 86 -231 295q0 162 136 267.5t337 105.5q199 0 329.5 -105.5t130.5 -267.5q0 -211 -233 -295q119 -41 203 -127t84 -221q0 -178 -139.5 -289.5t-374.5 -111.5q-238 0 -380.5 111.5t-142.5 289.5zM289 385q0 -117 93 -188.5 t240.5 -71.5t238.5 71.5t91 188.5q0 123 -91 195.5t-236 72.5q-147 0 -241.5 -72.5t-94.5 -195.5zM340 1020q0 -111 72.5 -172.5t212.5 -61.5q135 0 206.5 62.5t71.5 171.5q0 100 -77.5 166.5t-200.5 66.5q-121 0 -203 -66.5t-82 -166.5z" />
<glyph unicode="9" horiz-adv-x="1286" d="M123 936q0 186 140 329.5t366 143.5q256 0 395 -172t139 -467q0 -143 -31.5 -275.5t-98 -251t-189.5 -189t-289 -70.5q-174 0 -275.5 70.5t-101.5 146.5q0 63 88 86q20 -33 36.5 -52.5t50.5 -47t86.5 -42t121.5 -14.5q111 0 198 53.5t136 139.5t73.5 182t24.5 194 q-59 -84 -170.5 -139t-236.5 -55q-240 0 -351.5 118.5t-111.5 311.5zM293 940q0 -289 336 -289q147 0 246.5 80t99.5 191q0 51 -19.5 106t-58.5 108.5t-109.5 87t-158.5 33.5q-158 0 -247 -92t-89 -225z" />
<glyph unicode=":" horiz-adv-x="534" d="M133 116.5q0 59.5 39 96.5t96 37q55 0 94 -37t39 -96.5t-38.5 -96t-94.5 -36.5q-57 0 -96 36.5t-39 96zM133 809q0 59 39 96t96 37q55 0 94 -37t39 -96t-38.5 -96t-94.5 -37q-57 0 -96 37t-39 96z" />
<glyph unicode=";" horiz-adv-x="534" d="M119 -190q68 16 111.5 72.5t43.5 135.5q-16 -8 -47 -8q-41 0 -67.5 33t-26.5 78q0 55 39 92t96 37q59 0 103.5 -46t44.5 -126q0 -131 -67.5 -224.5t-162.5 -93.5q-67 1 -67 50zM133 807q0 59 39 96t96 37q55 0 94 -37t39 -96t-38.5 -96t-94.5 -37q-57 0 -96 37t-39 96z " />
<glyph unicode="&#x3c;" horiz-adv-x="1130" d="M164 637v31q0 55 23.5 81.5t78.5 51.5l592 260q68 29 86 29q47 0 47 -70v-10q0 -66 -63 -88q-117 -43 -332 -140l-248 -110v-39l582 -250q61 -27 61 -86v-10q0 -70 -49 -70q-16 0 -84 29l-590 256q-55 23 -79.5 52.5t-24.5 82.5z" />
<glyph unicode="=" horiz-adv-x="1079" d="M102 370.5q0 67.5 76 67.5h723q76 0 76 -67.5t-76 -67.5h-723q-76 0 -76 67.5zM102 733.5q0 67.5 76 67.5h723q76 0 76 -67.5t-76 -67.5h-723q-76 0 -76 67.5z" />
<glyph unicode="&#x3e;" horiz-adv-x="1132" d="M139 287v10q0 57 64 86l581 250v39l-579 250q-66 20 -66 88v10q0 70 47 70q23 0 43 -9l637 -280q53 -23 78 -52.5t25 -80.5v-31q0 -55 -23.5 -83t-81.5 -52l-590 -256q-68 -29 -86 -29q-49 0 -49 70z" />
<glyph unicode="?" horiz-adv-x="976" d="M82 1165q0 94 108.5 166t278.5 72q213 0 319.5 -102.5t106.5 -260.5q0 -80 -40 -145.5t-97.5 -108.5t-113.5 -80.5t-96 -79.5t-40 -87v-25q0 -78 -80 -78h-10q-82 0 -82 78v25q0 27 3 49t13 43.5t15.5 36t25 34t26.5 28.5t35 30l34 25l42 29l41 28l83 59q28 20 52.5 57 t24.5 76q0 98 -70.5 157.5t-195.5 59.5q-117 0 -178.5 -44t-93.5 -130q-47 0 -79 24.5t-32 63.5zM287 116.5q0 59.5 39 96.5t96 37q55 0 94 -37t39 -96.5t-39 -96t-94 -36.5q-57 0 -96 36.5t-39 96z" />
<glyph unicode="@" horiz-adv-x="1583" d="M119 680q0 227 100 394t252 245t328 78q131 0 251.5 -46t217 -133.5t155 -226.5t58.5 -311q0 -197 -87 -295t-218 -98q-78 0 -130.5 30.5t-70.5 61.5q-29 -39 -87.5 -64.5t-123.5 -25.5q-154 0 -247 100t-93 266q0 197 100.5 294.5t253.5 97.5q131 0 225.5 -33t94.5 -109 v-389q0 -43 23.5 -65.5t60.5 -22.5q133 0 133 252q0 268 -152.5 415.5t-363.5 147.5q-209 0 -361.5 -147.5t-152.5 -415.5t142 -419.5t347 -151.5q240 0 275 118q70 -10 69 -71q0 -76 -90 -132.5t-258 -56.5q-279 0 -465 188.5t-186 524.5zM578 657q0 -115 55 -175t151 -60 q49 0 88 15.5t55.5 31.5t16.5 27v389q-66 27 -164 26q-88 0 -145 -58.5t-57 -195.5z" />
<glyph unicode="A" horiz-adv-x="1406" d="M90 102q213 715 465 1172q4 6 14.5 26.5t13.5 24.5t12 18.5t14 17.5t15.5 11t19.5 10t22.5 4.5t29.5 2.5h23q16 0 29.5 -2.5t22.5 -4.5t19.5 -10t15.5 -11t14 -17.5t12.5 -18.5t13.5 -24.5t14 -26.5q252 -457 465 -1172q6 -25 6 -43q0 -59 -63 -59h-49q-16 0 -28.5 3 t-23 12.5t-16.5 15.5t-12 23l-10 26q-3 8 -9 32l-8 31q-55 205 -96 324h-619q-41 -127 -94 -324l-8 -31q-6 -24 -9 -32l-10 -26q-6 -17 -12 -23l-16 -15.5t-22.5 -12.5t-28.5 -3h-50q-63 0 -63 61q0 17 6 41zM449 614h518q-74 203 -260 580q-133 -236 -258 -580z" />
<glyph unicode="B" horiz-adv-x="1271" d="M207 76v1235q0 80 78 80h356q205 0 328 -88.5t123 -270.5q0 -106 -55.5 -185t-145.5 -108q117 -20 203 -96t86 -229q0 -209 -140.5 -311.5t-363.5 -102.5h-391q-78 0 -78 76zM383 154h293q330 0 330 260q0 240 -314 239h-309v-499zM383 793h272q135 0 200 55t65 170 q0 219 -279 219h-258v-444z" />
<glyph unicode="C" horiz-adv-x="1431" d="M129 698q0 342 194.5 525.5t483.5 183.5q217 0 357.5 -86t140.5 -191q0 -45 -34 -72.5t-89 -27.5q-63 217 -375 217q-205 0 -347.5 -138t-142.5 -411q0 -270 143.5 -414.5t346.5 -144.5q315 0 401 232q49 0 77 -28t28 -73q0 -104 -143.5 -195t-362.5 -91 q-289 0 -483.5 186t-194.5 528z" />
<glyph unicode="D" horiz-adv-x="1490" d="M207 76v1237q0 78 78 78h407q135 0 252 -41t210 -122t147.5 -218.5t54.5 -315.5t-54.5 -314t-147.5 -217t-210 -122t-252 -41h-407q-78 0 -78 76zM383 152h293q238 0 373 139t135 403t-135.5 402.5t-372.5 138.5h-293v-1083z" />
<glyph unicode="E" horiz-adv-x="1181" d="M207 78v1235q0 78 80 78h706q76 0 76 -78q0 -76 -76 -76h-608v-438h541q76 0 75 -78q0 -76 -75 -76h-541v-491h608q76 0 76 -78q0 -76 -76 -76h-706q-80 0 -80 78z" />
<glyph unicode="F" horiz-adv-x="1159" d="M207 78v1235q0 78 80 78h702q78 0 78 -78q0 -76 -78 -76h-604v-438h524q76 0 76 -78q0 -76 -76 -76h-524v-569q0 -76 -80 -76h-18q-80 0 -80 78z" />
<glyph unicode="G" horiz-adv-x="1482" d="M129 698q0 336 192.5 522.5t469.5 186.5q240 0 371.5 -82t131.5 -195q0 -41 -32 -70q-32 -28 -88 -28q-63 211 -383 211q-195 0 -334.5 -141t-139.5 -404q0 -264 134.5 -410.5t339 -146.5t318.5 114t114 286q0 29 -29 28h-313q-80 0 -80 84q0 78 80 78h399q51 0 83 -28.5 t32 -77.5v-86q0 -100 -40 -197.5t-113 -178.5t-190.5 -130t-260.5 -49q-289 0 -475.5 188t-186.5 526z" />
<glyph unicode="H" horiz-adv-x="1550" d="M207 78v1233q0 80 80 80h18q80 0 80 -80v-514h782v514q0 80 80 80h19q78 0 77 -80v-1233q0 -78 -77 -78h-19q-80 0 -80 78v565h-782v-565q0 -78 -80 -78h-18q-80 0 -80 78z" />
<glyph unicode="I" horiz-adv-x="591" d="M207 78v1233q0 80 78 80h18q82 0 82 -80v-1233q0 -78 -82 -78h-18q-78 0 -78 78z" />
<glyph unicode="J" horiz-adv-x="544" d="M-334 -264q0 43 22.5 67.5t55.5 24.5q12 -43 68.5 -81t144.5 -38q100 0 162.5 80t62.5 225v1301q0 76 80 76h19q80 0 79 -76v-1233q0 -252 -113.5 -384t-318.5 -132q-123 0 -192.5 51t-69.5 119z" />
<glyph unicode="K" horiz-adv-x="1257" d="M205 78v1233q0 80 80 80h18q80 0 80 -80v-535q354 287 557 555q41 59 125 60h72q49 0 49 -41q0 -20 -15 -35q-276 -313 -604 -572q164 -111 338 -285.5t312 -375.5q14 -20 14 -41q0 -41 -55 -41h-86q-55 0 -105 70q-258 367 -602 612v-604q0 -78 -80 -78h-18 q-80 0 -80 78z" />
<glyph unicode="L" horiz-adv-x="1165" d="M207 78v1235q0 78 80 78h18q80 0 80 -78v-1159h631q78 0 78 -78q0 -76 -78 -76h-729q-80 0 -80 78z" />
<glyph unicode="M" horiz-adv-x="1849" d="M207 76q0 207 6 608t6 606q0 100 100 101h68q113 0 160 -129l373 -1086l378 1086q45 129 158 129h74q47 0 75.5 -28t28.5 -73v-112q0 -184 4 -549t4 -553q0 -76 -79 -76h-19q-80 0 -80 76l6 1186l-432 -1174q-35 -88 -116 -88h-15q-86 0 -116 88q-55 152 -191.5 558.5 t-220.5 615.5l6 -1186q0 -76 -80 -76h-18q-80 0 -80 76z" />
<glyph unicode="N" horiz-adv-x="1548" d="M207 78v1212q0 100 82 101h41q78 0 131 -86l704 -1024v1030q0 43 18.5 61.5t59.5 18.5h19q80 0 79 -80v-1213q0 -43 -20.5 -70.5t-58.5 -27.5h-27q-78 0 -150 104l-702 1022v-1048q0 -78 -74 -78h-20q-82 0 -82 78z" />
<glyph unicode="O" horiz-adv-x="1570" d="M119 692q0 182 57 324.5t154.5 224.5t213 124t242.5 42t242 -42t212 -124t155.5 -224.5t58.5 -324.5q0 -180 -58.5 -320.5t-155.5 -222t-212 -123.5t-242 -42t-242.5 42t-213 123.5t-154.5 222t-57 320.5zM297 694q0 -266 144.5 -409.5t345 -143.5t345 143.5t144.5 409.5 q0 268 -144.5 411.5t-345 143.5t-345 -143.5t-144.5 -411.5z" />
<glyph unicode="P" horiz-adv-x="1247" d="M207 78v1233q0 80 80 80h372q211 0 344.5 -101.5t133.5 -322.5q0 -219 -133.5 -322.5t-344.5 -103.5h-274v-463q0 -78 -80 -78h-18q-80 0 -80 78zM385 694h277q301 0 301 272.5t-301 272.5h-277v-545z" />
<glyph unicode="Q" horiz-adv-x="1574" d="M117 692q0 182 58 323.5t155.5 224.5t212 125t241.5 42t243 -42t213 -125t154.5 -224.5t57.5 -323.5q0 -236 -96 -395.5t-254 -239.5q109 -129 264 -129q43 0 78 9q0 -74 -46 -125.5t-124 -51.5q-47 0 -90 13.5t-85 47.5t-62.5 52t-66.5 69.5t-52 57.5q-70 -16 -134 -16 q-127 0 -241.5 42t-212 123.5t-155.5 222t-58 320.5zM295 692q0 -264 144.5 -407.5t344.5 -143.5q203 0 346.5 143.5t143.5 407.5q0 270 -143.5 412.5t-346 142.5t-346 -142.5t-143.5 -412.5z" />
<glyph unicode="R" horiz-adv-x="1298" d="M207 76v1235q0 78 80 78l370 2q201 0 333 -94.5t132 -309.5q0 -158 -112.5 -260t-274.5 -115q72 -135 216.5 -305t275.5 -260q-41 -66 -119 -65q-53 0 -115.5 43t-114 100t-116 152.5t-102.5 161.5l-93 165h-188v-528q0 -76 -82 -76h-10q-80 0 -80 76zM379 752h287 q127 0 205.5 63.5t78.5 173.5q0 125 -74.5 186.5t-209.5 61.5h-287v-485z" />
<glyph unicode="S" horiz-adv-x="1216" d="M117 186q0 76 104 103q76 -154 342 -154q170 0 265.5 68.5t95.5 167.5q0 117 -95.5 174t-289.5 106q-209 51 -311.5 137t-102.5 232q0 164 139 274.5t361 110.5q186 0 294.5 -50t108.5 -124t-90 -92q-78 117 -313 116q-139 0 -227.5 -64.5t-88.5 -162.5q0 -86 72 -135 t235 -92q113 -29 188 -57.5t149.5 -74.5t111.5 -114t37 -158q0 -182 -147.5 -297.5t-391.5 -115.5q-199 0 -322.5 58t-123.5 144z" />
<glyph unicode="T" horiz-adv-x="1163" d="M68 1313q0 78 77 78h873q78 0 78 -78q0 -76 -78 -76h-348v-1159q0 -78 -80 -78h-19q-80 0 -79 78v1159h-347q-77 0 -77 76z" />
<glyph unicode="U" horiz-adv-x="1515" d="M199 590v721q0 80 80 80h20q80 0 80 -80v-729q0 -446 379 -446.5t379 446.5v729q0 80 80 80h16q84 0 84 -80v-721q0 -86 -12.5 -162t-48 -161t-95 -145.5t-163 -99t-240.5 -38.5t-240.5 38.5t-163 99t-95.5 145.5t-48 161t-12 162z" />
<glyph unicode="V" horiz-adv-x="1421" d="M82 1331q0 57 65 58h50q16 0 28.5 -3.5t22.5 -12.5t16 -15t12 -24l10 -25q3 -8 9 -32l8 -32q166 -618 410 -1050q250 508 399 1050q2 6 6 25.5t6 24.5t7.5 21.5t8.5 21.5t9 16.5t12 15.5l15 9q8 5 19 7.5t24 2.5h49q66 0 65 -58q0 -12 -8 -45q-213 -715 -465 -1171 q-4 -6 -14 -26.5t-13.5 -25t-12.5 -18.5t-14 -17t-15.5 -11.5t-19.5 -10.5t-22.5 -4t-29.5 -2h-23q-16 0 -29.5 2t-22.5 4t-19.5 10.5t-15.5 11.5t-14 17l-12 18.5t-13.5 25t-14.5 26.5q-252 457 -465 1171q-8 33 -8 45z" />
<glyph unicode="W" horiz-adv-x="2052" d="M111 1333q0 23 17 38t44 15h49q78 0 90 -67l287 -1131l324 1131q20 72 90 72h18q68 0 88 -72l324 -1131q160 510 274 1131q12 68 90 67h49q27 0 44.5 -15t17.5 -38q0 -16 -4 -33q-150 -643 -330 -1181q-41 -119 -129 -119h-31q-98 0 -129 111l-274 999l-275 -999 q-14 -51 -47.5 -81t-81.5 -30h-43q-88 0 -129 119q-180 539 -329 1181q-4 17 -4 33z" />
<glyph unicode="X" horiz-adv-x="1306" d="M78 33q0 23 60.5 124t173 261t235.5 307l-434 600q-10 14 -11 27q0 39 45 39h82q51 0 90 -56l347 -497q84 98 164.5 223t119.5 201l39 73q35 55 88 56h84q43 0 43 -39q0 -16 -8 -27l-61 -103q-39 -65 -153 -223.5t-218 -271.5l459 -659q12 -18 12 -35q0 -33 -41 -33h-88 q-59 0 -98 61l-355 553q-158 -168 -346 -544l-4 -9q-39 -61 -98 -61h-88q-39 0 -39 33z" />
<glyph unicode="Y" horiz-adv-x="1292" d="M82 1333q0 57 65 58h43q12 0 22.5 -3.5t20 -12.5t16.5 -17t15 -23.5t12.5 -26l13.5 -31t13 -30.5q137 -305 332 -557h22q195 252 332 557q4 10 13.5 30.5t13.5 31t12 26t15.5 23.5l16.5 17t19.5 12.5t22.5 3.5h43q66 0 65 -58q0 -29 -8 -45q-16 -45 -37 -89l-37 -80 q-16 -36 -42 -81l-40 -72q-15 -28 -48 -76t-46.5 -69.5t-52.5 -75.5l-51 -69l-57 -77l-56 -75v-446q0 -78 -80 -78h-18q-80 0 -80 78v446l-55 75l-58 77l-51 69q-39 53 -52 75t-46 70t-48 76l-41 72q-26 45 -42 81l-37 80q-20 44 -37 89q-8 16 -8 45z" />
<glyph unicode="Z" horiz-adv-x="1417" d="M168 115v26q0 61 96 174l807 906v26h-786q-41 0 -57.5 15.5t-16.5 56.5t16.5 55.5t57.5 14.5h860q55 0 88 -33t33 -86v-43q0 -45 -107 -162l-799 -901v-23h816q41 0 59 -17.5t18 -55.5q0 -41 -17 -54.5t-60 -13.5h-891q-55 0 -86 31t-31 84z" />
<glyph unicode="[" horiz-adv-x="659" d="M168 -375v1708q0 41 18.5 59.5t61.5 18.5h260q74 0 74 -78t-74 -78h-170v-1550h170q74 0 74 -78t-74 -78h-260q-80 0 -80 76z" />
<glyph unicode="\" horiz-adv-x="772" d="M68 1360q-8 22 -8 39q0 41 44 55q17 6 31 6q41 0 62 -53l503 -1325q8 -21 8 -37q0 -40 -44 -57q-16 -6 -30 -7q-40 0 -61 54z" />
<glyph unicode="]" horiz-adv-x="659" d="M78 -373q0 78 76 78h170v1550h-170q-76 0 -76 78t76 78h258q82 0 82 -78v-1708q0 -76 -82 -76h-258q-76 0 -76 78z" />
<glyph unicode="^" horiz-adv-x="991" d="M72 1001l354 385h139l355 -385h-168l-256 285q-29 -27 -129.5 -144.5t-124.5 -140.5h-170z" />
<glyph unicode="_" horiz-adv-x="1083" d="M-76 -67.5q0 67.5 76 67.5h1083q76 0 76 -67.5t-76 -67.5h-1083q-76 0 -76 67.5z" />
<glyph unicode="`" horiz-adv-x="694" d="M111 1362v55q0 37 36 37q18 0 33 -8l369 -219q33 -20 37 -56v-18q0 -31 -35 -31q-14 0 -27 6l-372 166q-41 19 -41 68z" />
<glyph unicode="a" horiz-adv-x="1093" d="M90 293q0 150 111.5 240t302.5 90q41 0 76.5 -3.5t67.5 -10.5t47 -12l44 -15q29 -10 33 -13v90q0 125 -63.5 177.5t-192.5 52.5q-182 0 -283 -139q-86 12 -86 79q0 78 106.5 137.5t254.5 59.5q434 0 434 -403v-406q0 -113 86 -143q-31 -78 -115 -78q-61 0 -97 44t-36 116 q-129 -172 -334 -172q-166 0 -261 85t-95 224zM258 301q0 -82 58.5 -132t158.5 -50q127 0 212 82t85 198v39q-129 57 -264 58q-115 0 -182.5 -53.5t-67.5 -141.5z" />
<glyph unicode="b" horiz-adv-x="1167" d="M150 141v1219q0 76 75 76h17q78 0 77 -76v-490q41 70 127 115t189 45q190 0 308 -128t118 -388q0 -262 -139.5 -396t-348.5 -134q-174 0 -364 71q-31 12 -45 30.5t-14 55.5zM319 188q115 -61 265 -61q137 0 222 96t85 289q0 373 -275 373q-129 0 -213 -101.5t-84 -267.5 v-328z" />
<glyph unicode="c" horiz-adv-x="1013" d="M86 504q0 137 44 242.5t119 165t161 88t180 28.5q152 0 245 -55t93 -119q0 -78 -88 -88q-20 45 -92 83t-170 38q-137 0 -227.5 -97.5t-90.5 -285.5q0 -184 92 -282.5t221 -98.5q205 0 277 133q39 0 65.5 -23.5t26.5 -60.5q0 -72 -98.5 -130t-253.5 -58q-96 0 -183.5 29.5 t-161 90t-116.5 163t-43 237.5z" />
<glyph unicode="d" horiz-adv-x="1167" d="M100 487q0 266 131 404.5t334 138.5q160 0 275 -94v467q0 74 78 74h16q78 0 78 -74v-1329q0 -74 -78 -74h-16q-78 0 -78 70v100q-45 -80 -129 -132t-191 -52q-182 0 -301 124.5t-119 376.5zM268 489q0 -193 82 -278.5t207 -85.5q147 0 215 102.5t68 253.5v287 q-109 113 -277 113q-135 0 -215 -97.5t-80 -294.5z" />
<glyph unicode="e" horiz-adv-x="1054" d="M86 504q0 254 143.5 389t333.5 135q182 0 291 -95t109 -236.5t-112 -220.5t-288 -79t-317 56q0 -150 102.5 -241t249.5 -91q229 0 287 141q35 0 59.5 -19.5t24.5 -56.5q0 -72 -105.5 -137t-267.5 -65q-217 0 -363.5 131t-146.5 389zM248 580q147 -49 293 -50 q266 0 266 172q0 80 -68.5 135.5t-179.5 55.5q-129 0 -219 -96t-92 -217z" />
<glyph unicode="f" horiz-adv-x="765" d="M63 934q0 41 18.5 55.5t59.5 14.5h107v65q0 190 104.5 295.5t286.5 105.5q94 0 156.5 -43t62.5 -108q0 -63 -65 -86q-51 86 -177 86q-100 0 -150 -79t-50 -216v-20h252q78 0 77 -70q0 -68 -77 -68h-252v-798q0 -41 -18.5 -58.5t-59.5 -17.5h-10q-43 0 -61.5 17.5 t-18.5 58.5v798h-107q-43 0 -60.5 13.5t-17.5 54.5z" />
<glyph unicode="g" horiz-adv-x="1081" d="M68 -223q0 45 21.5 71.5t55.5 30.5q25 -51 76 -92q115 -94 293 -94h14q154 0 241 47t87 117q0 72 -77 103.5t-236 31.5q-215 0 -309.5 37t-94.5 135q0 115 150 176q-178 100 -178 319q0 174 118.5 270.5t292.5 96.5q88 0 163 -37t114 -80q78 51 78 187q55 0 98 -34 t43 -85q0 -102 -152 -148q45 -61 45 -180q0 -174 -113.5 -265t-283.5 -91q-14 0 -45 2t-47 2q-49 0 -84 -25.5t-35 -56.5q0 -78 131 -78h152q436 0 436 -268q0 -141 -136 -229.5t-349 -96.5h-50q-174 0 -296.5 70t-122.5 164zM270 657.5q0 -120.5 70 -179t174 -58.5 t173 58.5t69 179t-69 179t-173 58.5t-174 -58.5t-70 -179z" />
<glyph unicode="h" horiz-adv-x="1155" d="M150 78v1280q0 78 77 78h15q78 0 77 -78v-553q35 90 119 153.5t197 63.5q172 0 274.5 -97.5t102.5 -314.5v-532q0 -41 -18.5 -59.5t-59.5 -18.5h-16q-76 0 -76 78v522q0 285 -246 285q-129 0 -201.5 -106.5t-72.5 -268.5v-432q0 -78 -80 -78h-15q-41 0 -59 18.5t-18 59.5 z" />
<glyph unicode="i" horiz-adv-x="536" d="M156 1298.5q0 47.5 32.5 81t79.5 33.5q45 0 79 -33.5t34 -81.5q0 -45 -33 -78.5t-80 -33.5t-79.5 32.5t-32.5 80zM184 78v856q0 76 78 76h12q78 0 78 -76v-856q0 -78 -78 -78h-12q-78 0 -78 78z" />
<glyph unicode="j" horiz-adv-x="577" d="M-131 -317q0 63 51 96q12 -18 57.5 -38t94.5 -20q92 0 121.5 77t29.5 247v887q0 76 80 76h12q78 0 78 -76v-887q0 -238 -72.5 -355.5t-250.5 -117.5q-102 0 -151.5 32t-49.5 79zM197 1296q0 47 32.5 81t79.5 34q45 0 78 -34t33 -81q0 -45 -33 -77.5t-78 -32.5 q-47 0 -79.5 32.5t-32.5 77.5z" />
<glyph unicode="k" horiz-adv-x="1034" d="M154 78v1280q0 41 18 59.5t59 18.5h13q41 0 59.5 -18.5t18.5 -59.5v-752q121 84 232 191l170 159q58 53 103 54h58q25 0 40 -13.5t15 -31.5q0 -68 -455 -390q109 -86 251.5 -237.5t224.5 -261.5q12 -18 12 -35q0 -41 -51 -41h-50q-66 0 -94 39q-217 285 -456 481v-442 q0 -41 -18.5 -59.5t-59.5 -18.5h-13q-41 0 -59 18.5t-18 59.5z" />
<glyph unicode="l" horiz-adv-x="493" d="M162 78v1282q0 41 17.5 58.5t60.5 17.5h14q78 0 78 -76v-1282q0 -78 -78 -78h-14q-43 0 -60.5 18.5t-17.5 59.5z" />
<glyph unicode="m" horiz-adv-x="1734" d="M150 76v856q0 78 77 78h13q80 0 79 -78v-86q94 178 289 178q125 0 208 -66.5t114 -185.5q33 119 121 186.5t202 67.5q352 0 353 -412v-538q0 -76 -82 -76h-13q-78 0 -77 76v528q0 281 -213 281q-150 0 -204 -108.5t-54 -295.5v-405q0 -76 -80 -76h-15q-78 0 -77 76v528 q0 281 -216 281q-256 0 -256 -398v-411q0 -76 -79 -76h-13q-77 0 -77 76z" />
<glyph unicode="n" horiz-adv-x="1140" d="M150 78v854q0 78 77 78h15q78 0 77 -78v-101q39 78 123 137.5t193 59.5q166 0 271.5 -99.5t105.5 -314.5v-536q0 -41 -18.5 -59.5t-59.5 -18.5h-16q-76 0 -76 78v530q0 150 -63.5 213.5t-180.5 63.5q-125 0 -200.5 -98.5t-75.5 -260.5v-448q0 -78 -80 -78h-15 q-41 0 -59 18.5t-18 59.5z" />
<glyph unicode="o" d="M86 504q0 250 145.5 387t356.5 137t356.5 -137t145.5 -387t-145.5 -385t-356.5 -135t-356.5 135t-145.5 385zM260 506q0 -184 91 -283.5t236.5 -99.5t236.5 99.5t91 283.5q0 182 -91 281.5t-236.5 99.5t-236.5 -99.5t-91 -281.5z" />
<glyph unicode="p" horiz-adv-x="1167" d="M147 -387v1321q0 76 78 76h15q78 0 77 -72v-80q43 72 129 121t187 49q190 0 308 -128t118 -388q0 -262 -138.5 -395t-338.5 -133q-137 0 -265 69v-440q0 -76 -77 -76h-15q-78 0 -78 76zM317 186q20 -14 101.5 -37.5t163.5 -23.5q137 0 222 96t85 289q0 197 -82 286 t-213 89q-147 0 -212 -123t-65 -320v-256z" />
<glyph unicode="q" horiz-adv-x="1167" d="M98 485q0 264 140.5 403.5t347.5 139.5q152 0 354 -63q72 -25 72 -101v-1251q0 -76 -78 -76h-16q-78 0 -78 76v537q-45 -78 -133.5 -121t-188.5 -43q-182 0 -301 123.5t-119 375.5zM268 487q0 -360 297 -360q143 0 209 106.5t66 260.5v331q-20 14 -101.5 38t-163.5 24 q-135 0 -221 -102.5t-86 -297.5z" />
<glyph unicode="r" horiz-adv-x="831" d="M150 78v856q0 76 77 76h13q78 0 77 -76v-111q35 78 112 139.5t171 61.5q82 0 128 -35t46 -82q0 -53 -43 -82q-63 53 -135 54q-127 0 -200.5 -103.5t-73.5 -259.5v-438q0 -41 -18.5 -59.5t-59.5 -18.5h-17q-41 0 -59 18.5t-18 59.5z" />
<glyph unicode="s" horiz-adv-x="948" d="M82 147q0 70 68 103q29 -55 110.5 -94t212.5 -39q115 0 179.5 45t64.5 110q0 68 -58.5 106t-218.5 73q-178 39 -254.5 107.5t-76.5 170.5q0 139 119.5 220t271.5 81q143 0 224 -42t81 -105q0 -51 -80 -78q-14 33 -78.5 61.5t-152.5 28.5q-100 0 -161 -36t-61 -103 q0 -61 45 -96t179 -66q201 -45 288.5 -116.5t87.5 -194.5q0 -135 -118.5 -216t-300.5 -81q-164 0 -267.5 43.5t-103.5 117.5z" />
<glyph unicode="t" horiz-adv-x="821" d="M51 934q0 70 86 70h101v202q0 76 77 76h15q78 0 78 -76v-202h282q80 0 80 -70t-80 -70h-282v-516q0 -129 50 -181t146 -52q98 0 146 47q51 -16 51 -70q0 -45 -67.5 -76.5t-162.5 -31.5q-334 0 -333 364v516h-101q-45 0 -65.5 14.5t-20.5 55.5z" />
<glyph unicode="u" horiz-adv-x="1144" d="M125 395v537q0 76 78 76h14q78 0 78 -76v-526q0 -281 248 -281q94 0 158.5 55.5t89 131t24.5 163.5v457q0 76 80 76h14q41 0 58.5 -17.5t17.5 -58.5v-856q0 -41 -18.5 -58.5t-59.5 -17.5h-12q-80 0 -80 76v102q-29 -66 -122 -130t-199 -64q-369 -1 -369 411z" />
<glyph unicode="v" horiz-adv-x="1044" d="M59 963q0 45 64 45h47q66 0 80 -64q135 -528 260 -780h25q125 252 260 780q14 63 79 64h48q63 0 63 -45q0 -12 -6 -29q-158 -539 -307 -834q-27 -53 -55.5 -76.5t-84.5 -23.5h-18q-57 0 -86 23.5t-55 76.5q-150 295 -307 834q-7 17 -7 29z" />
<glyph unicode="w" horiz-adv-x="1538" d="M61 963q0 45 68 45h33q59 0 74 -64q137 -555 213 -794h24l91 353q73 284 110 441q14 63 80 64h30q66 0 80 -64q35 -152 107.5 -422t97.5 -372h25q31 96 61.5 207.5t46.5 176.5l52 214q36 150 49 196q14 63 73 64h33q68 0 68 -45q0 -8 -4 -29l-55 -207l-58 -223 q-23 -82 -58.5 -196.5t-70.5 -207.5q-39 -100 -141 -100h-19q-57 0 -83.5 23.5t-43.5 76.5q-121 406 -170 703h-12q-57 -344 -164 -703q-16 -53 -43 -76.5t-84 -23.5h-18q-102 0 -142 100q-35 92 -72.5 212t-56.5 188l-62 233q-44 166 -54 201q-5 21 -5 29z" />
<glyph unicode="x" horiz-adv-x="1081" d="M115 964.5q0 18.5 15 32t40 13.5h63q51 0 84 -49l232 -355q88 109 235 355q31 49 80 49h37q59 0 60 -47q0 -16 -9 -31q-117 -199 -311 -426l322 -428q16 -23 16 -41q0 -37 -43 -37h-80q-51 0 -92 57l-232 334q-18 -18 -40.5 -48t-50.5 -71l-47 -69l-53 -81 q-34 -52 -46 -73q-33 -49 -84 -49h-37q-25 0 -41 16.5t-16 38.5q0 16 12 35q139 205 317 404l-319 438q-12 14 -12 32.5z" />
<glyph unicode="y" horiz-adv-x="1058" d="M55 963q0 45 64 45h39q66 0 80 -64q125 -492 276 -794h18q172 424 277 794q18 63 80 64h33q63 0 63 -45q0 -12 -6 -29q-238 -741 -516 -1331q-16 -35 -33.5 -50.5t-54.5 -15.5h-51q-49 0 -50 47q0 14 13 37l98 193q66 127 90 188h-4q-10 2 -20.5 5t-16.5 6t-13 10.5 t-11 10.5t-10.5 14l-8.5 14.5t-9 18.5t-9 19q-158 315 -312 834q-6 17 -6 29z" />
<glyph unicode="z" horiz-adv-x="1017" d="M96 102v21q0 43 54 100l559 619v18h-508q-76 0 -76 76q0 74 76 74h616q47 0 76 -28t29 -75v-16q0 -49 -56 -105l-590 -628v-8h527q37 0 53 -1.5t37.5 -8.5t30 -22.5t8.5 -41.5q0 -76 -74 -76h-657q-105 0 -105 102z" />
<glyph unicode="{" horiz-adv-x="761" d="M100 477q0 78 76 78h10q113 0 113 244v360q0 139 63.5 201.5t204.5 62.5h15q78 0 77 -80q0 -76 -77 -75h-19q-96 0 -96 -94v-375q0 -209 -109 -324q109 -119 109 -342v-342q0 -94 96 -94h19q78 0 77 -78q0 -76 -77 -76h-15q-141 0 -204.5 61.5t-63.5 198.5v330 q0 266 -113 266h-10q-76 0 -76 78z" />
<glyph unicode="|" horiz-adv-x="524" d="M178 -25v1446q0 41 17.5 58.5t60.5 17.5h14q78 0 78 -76v-1446q0 -78 -78 -77h-14q-43 0 -60.5 18t-17.5 59z" />
<glyph unicode="}" horiz-adv-x="761" d="M102 1343.5q0 77.5 76 77.5h15q150 0 210 -68.5t60 -228.5v-290q0 -147 26.5 -214t88.5 -67h2q80 0 79 -80q0 -78 -75 -78h-11q-111 0 -110 -276v-244q0 -176 -58.5 -254t-214.5 -78h-6q-82 0 -82 78t82 78h11q53 0 75.5 21.5t22.5 72.5v352q0 205 108 330 q-109 109 -108 334v365q0 92 -98 92h-11q-82 0 -82 77.5z" />
<glyph unicode="~" horiz-adv-x="817" d="M94 1186q0 74 47 110q49 39 125 39q16 0 28.5 -1t27 -4t21.5 -4t23.5 -7t20.5 -8t25.5 -11.5t25.5 -11.5q74 -33 137 -33q47 0 76 33q18 23 50 14.5t32 -42.5q0 -74 -47 -111q-49 -39 -125 -39q-16 0 -28.5 1t-26.5 4t-21.5 4t-24 7.5t-20.5 8.5t-25.5 11t-25.5 11 q-74 33 -137 33q-47 0 -76 -33q-18 -23 -50 -14.5t-32 43.5z" />
<glyph unicode="&#xa1;" horiz-adv-x="534" d="M133 1257.5q0 59.5 39 96.5t94 37q57 0 96 -37t39 -96.5t-38.5 -96.5t-96.5 -37q-55 0 -94 37t-39 96.5zM154 82l39 801q2 72 67 71h10q68 0 68 -71l41 -801q0 -98 -96 -98h-33q-96 0 -96 98z" />
<glyph unicode="&#xa2;" horiz-adv-x="1126" d="M127 674q0 137 44 242.5t119 165t161 88t180 28.5q8 0 26.5 -1t28.5 -1l43 121q25 72 105 72q72 0 71 -54q0 -8 -8 -37l-49 -137q123 -51 123 -137q0 -78 -90 -88q-29 53 -84 82l-252 -713q47 -10 90 -10q209 0 276 125q35 0 57.5 -24.5t22.5 -51.5q0 -74 -97 -132 t-263 -58q-74 0 -133 14l-35 -96q-25 -72 -105 -72q-72 0 -71 51q0 20 8 39l49 139q-217 138 -217 445zM301 674q0 -182 98 -287l236 668q-139 0 -236.5 -98.5t-97.5 -282.5z" />
<glyph unicode="&#xa3;" d="M59 680q0 72 78 72h96v262q0 193 114 284t300 91q188 0 287.5 -68t99.5 -174q0 -53 -34.5 -86t-84.5 -37q-6 111 -71.5 160t-196.5 49q-113 0 -179.5 -60.5t-66.5 -158.5v-260q92 2 279 2q78 0 78 -78q0 -27 -9.5 -42t-32 -21.5t-37.5 -7.5t-52 -1h-226v-229 q0 -166 -108 -225h649q51 0 71.5 -2.5t41 -19.5t20.5 -54q0 -76 -78 -76h-790q-53 0 -94 29.5t-41 81.5q0 68 65 102q57 31 78 78t21 164v153h-99q-78 0 -78 72z" />
<glyph unicode="&#xa4;" horiz-adv-x="1320" d="M133 1114q0 23 31 53.5t63 30.5q18 0 45 -21.5t77 -72.5l54 -55q119 84 262.5 84t262.5 -84l43 44l51 51q20 19 44 36.5t38 17.5q33 0 63.5 -30.5t30.5 -53.5q0 -16 -24.5 -45t-80 -78t-59.5 -53q82 -113 82 -254t-82 -254q12 -10 37 -33l44 -41l40 -39 q20 -20 31.5 -36.5t11.5 -26.5q0 -23 -30.5 -53.5t-63.5 -30.5q-18 0 -45 21.5t-77 72.5l-54 55q-119 -84 -262.5 -83.5t-262.5 83.5l-43 -44l-51 -51q-20 -19 -43.5 -36.5t-38.5 -17.5q-33 0 -63.5 30.5t-30.5 53.5q0 16 24.5 45t80 78t59.5 53q-82 113 -82 254t82 254 q-12 10 -37 33l-44 41l-40 39q-20 20 -31.5 36.5t-11.5 26.5zM367 684q0 -127 86 -215t213 -88t213 88t86 215t-86 215t-213 88t-213 -88t-86 -215z" />
<glyph unicode="&#xa5;" horiz-adv-x="1366" d="M119 1333q0 57 65 58h43q12 0 22.5 -3.5t20 -12.5t16.5 -17t15 -23.5t12 -26t13.5 -31t13.5 -30.5q137 -305 332 -557h22q195 252 332 557q4 10 13.5 30.5t13.5 31t12 26t15 23.5t16.5 17t19.5 12.5t23 3.5h43q66 0 65 -58q0 -29 -8 -45q-86 -227 -254 -471h111 q82 0 82 -78q0 -74 -82 -73h-219q-16 -25 -53 -72l-52 -70v-26h324q82 0 82 -74q0 -72 -82 -72h-324v-274q0 -78 -80 -78h-18q-80 0 -80 78v274h-326q-82 0 -82 72q0 74 82 74h326v26l-107 142h-219q-43 0 -62.5 15t-19.5 58q0 78 82 78h113q-168 242 -254 471q-8 16 -8 45z " />
<glyph unicode="&#xa6;" horiz-adv-x="524" d="M178 -8v536q0 72 78 72h12q78 0 78 -72v-536q0 -76 -78 -76h-12q-78 0 -78 76zM178 864v537q0 72 78 72h12q78 0 78 -72v-537q0 -76 -78 -76h-12q-78 0 -78 76z" />
<glyph unicode="&#xa7;" horiz-adv-x="993" d="M96 389q0 76 51.5 143.5t139.5 100.5q-80 49 -122 107.5t-42 150.5q0 121 99.5 213t269.5 92q156 0 254 -56.5t98 -127.5q0 -104 -121 -105q0 59 -69.5 100.5t-164.5 41.5q-78 0 -137 -44t-59 -116q0 -59 60.5 -102.5t146.5 -74t171 -69.5t145.5 -108.5t60.5 -167.5 q0 -178 -175 -250q190 -100 191 -260q0 -145 -118 -231.5t-288 -86.5q-201 0 -296 60.5t-95 142.5q0 47 31 76.5t90 29.5q0 -74 79 -115.5t200 -41.5q102 0 162 44q61 43 61 115q0 59 -64.5 100.5t-155.5 70t-182.5 65.5t-156 113.5t-64.5 189.5zM262 389q0 -35 19.5 -64.5 t63.5 -55t77 -40l94 -39.5q90 6 142.5 51.5t52.5 110.5q0 37 -19.5 67t-64.5 55.5t-79 40.5t-102 40q-74 -4 -129 -49t-55 -117z" />
<glyph unicode="&#xa8;" horiz-adv-x="819" d="M111 1251q0 39 27.5 64.5t66.5 25.5t65.5 -25.5t26.5 -64.5q0 -41 -26.5 -67.5t-65.5 -26.5t-66.5 26.5t-27.5 67.5zM524 1251q0 39 27 64.5t67 25.5q37 0 64 -25.5t27 -64.5q0 -41 -27 -67.5t-64 -26.5q-41 0 -67.5 26.5t-26.5 67.5z" />
<glyph unicode="&#xa9;" horiz-adv-x="1642" d="M106 680q0 295 209 505t506 210t506 -210t209 -505q0 -297 -209 -506t-506 -209t-506 209t-209 506zM262 680q0 -242 163 -403.5t396.5 -161.5t397 161.5t163.5 403.5q0 240 -163.5 402.5t-397 162.5t-396.5 -161.5t-163 -403.5zM393 674q0 229 130 341.5t306 112.5 q141 0 236.5 -64.5t95.5 -148.5q0 -80 -100 -79q0 70 -61.5 121t-163.5 51q-123 0 -209 -85t-86 -249t84 -250t209 -86q102 0 170.5 51t68.5 123q41 0 68.5 -21.5t27.5 -56.5q0 -86 -98 -149.5t-242 -63.5q-180 0 -308 114t-128 339z" />
<glyph unicode="&#xaa;" horiz-adv-x="1093" d="M90 293q0 150 111.5 240t302.5 90q41 0 76.5 -3.5t67.5 -10.5t47 -12l44 -15q29 -10 33 -13v90q0 125 -63.5 177.5t-192.5 52.5q-182 0 -283 -139q-86 12 -86 79q0 78 106.5 137.5t254.5 59.5q434 0 434 -403v-406q0 -113 86 -143q-31 -78 -115 -78q-61 0 -97 44t-36 116 q-129 -172 -334 -172q-166 0 -261 85t-95 224zM258 301q0 -82 58.5 -132t158.5 -50q127 0 212 82t85 198v39q-129 57 -264 58q-115 0 -182.5 -53.5t-67.5 -141.5z" />
<glyph unicode="&#xab;" horiz-adv-x="1103" d="M139 530.5q0 53.5 39 102.5q190 252 225 289q45 43 76 43q35 0 59.5 -21.5t24.5 -46.5t-18 -49l-244 -318l244 -317q18 -25 18 -49.5t-24.5 -46t-59.5 -21.5t-84 54.5t-168 211.5l-49 66q-39 49 -39 102.5zM537 530.5q0 53.5 38 102.5q190 252 226 289q45 43 76 43 q35 0 59.5 -21.5t24.5 -46.5t-19 -49l-244 -318l244 -317q18 -25 18.5 -49.5t-24.5 -46t-59.5 -21.5t-84 54.5t-167.5 211.5l-50 66q-38 49 -38 102.5z" />
<glyph unicode="&#xad;" horiz-adv-x="901" d="M102 602.5q0 67.5 76 67.5h545q76 0 76 -67.5t-76 -67.5h-545q-76 0 -76 67.5z" />
<glyph unicode="&#xae;" horiz-adv-x="1642" d="M104 678q0 297 210 507t505 210q297 0 507 -210t210 -507q0 -295 -210 -504t-507 -209q-295 0 -505 209t-210 504zM260 678q0 -240 163 -401.5t396.5 -161.5t397 161.5t163.5 401.5q0 242 -163.5 404.5t-397 162.5t-396.5 -162.5t-163 -404.5zM541 326v704q0 57 57 57 h203q74 0 126 -8t104 -32.5t79 -78t27 -132.5q0 -190 -193 -238q51 -90 118.5 -180t108.5 -117q-37 -37 -90 -37q-96 0 -260 322h-155v-260q0 -55 -58 -56h-10q-57 1 -57 56zM666 698h184q80 0 121 29t41 109q0 82 -40 110.5t-122 28.5h-184v-277z" />
<glyph unicode="&#xaf;" horiz-adv-x="901" d="M102 1216.5q0 67.5 76 67.5h545q76 0 76 -67.5t-76 -67.5h-545q-76 0 -76 67.5z" />
<glyph unicode="&#xb0;" horiz-adv-x="499" d="M76 1268q0 80 48 127t126 47t126 -47t48 -127t-48 -127t-126 -47t-126 47t-48 127zM147 1268q0 -47 28 -77t75 -30t74.5 30t27.5 77t-27.5 75.5t-74.5 28.5t-75 -28.5t-28 -75.5z" />
<glyph unicode="&#xb1;" horiz-adv-x="1136" d="M82 67.5q0 67.5 76 67.5h825q76 0 76 -67.5t-76 -67.5h-825q-76 0 -76 67.5zM82 727q0 68 76 68h342v321q0 76 67.5 76t67.5 -76v-321h348q76 0 76 -68t-76 -68h-348v-327q0 -76 -67.5 -76t-67.5 76v327h-342q-76 0 -76 68z" />
<glyph unicode="&#xb2;" horiz-adv-x="677" d="M92 737q0 35 58 80q285 229 284 365q0 96 -125 96q-57 0 -97 -22.5t-44 -63.5q-33 0 -53.5 19.5t-20.5 45.5q0 47 56.5 91.5t168.5 44.5q106 0 174 -54.5t68 -150.5q0 -170 -285 -393h252q61 0 62 -62q0 -59 -62 -59h-376q-60 0 -60 63z" />
<glyph unicode="&#xb3;" horiz-adv-x="655" d="M90 797q0 68 90 67q0 -39 36 -63.5t91 -24.5q53 0 90 29t37 82q0 51 -36 74.5t-91 23.5h-41q-33 0 -46 11.5t-13 39.5q0 53 59 54h37q45 0 74 27.5t29 72.5q0 35 -25 60.5t-74 25.5t-75.5 -31t-32.5 -76q-39 2 -68 21.5t-29 52.5q0 53 52.5 100.5t156.5 47.5 q113 0 166 -58.5t53 -134.5q0 -94 -96 -147q127 -43 127 -170q0 -94 -71.5 -155.5t-182.5 -61.5q-102 0 -159.5 38t-57.5 95z" />
<glyph unicode="&#xb4;" horiz-adv-x="694" d="M111 1153v18q0 31 36 56l369 219q10 8 33 8q37 0 37 -37v-55q0 -49 -45 -68l-371 -166q-12 -6 -27 -6q-32 0 -32 31z" />
<glyph unicode="&#xb5;" horiz-adv-x="1144" d="M125 -385v1317q0 76 78 76h14q78 0 78 -76v-539q0 -268 248 -268q78 0 135 36t85 95t40 121.5t12 130.5v424q0 76 80 76h14q41 0 58.5 -17.5t17.5 -58.5v-856q0 -41 -18.5 -58.5t-59.5 -17.5h-12q-80 0 -80 76v102q-25 -63 -99.5 -124.5t-170.5 -65.5q-168 -12 -250 55 v-428q0 -78 -78 -78h-14q-78 0 -78 78z" />
<glyph unicode="&#xb6;" horiz-adv-x="1050" d="M170 950q0 209 137 325t340 116h86q8 0 24.5 -1t26.5 -1h2q80 0 80 -78v-1235q0 -76 -80 -76h-12q-76 0 -76 76v438h-51q-201 0 -339 116.5t-138 319.5z" />
<glyph unicode="&#xb7;" horiz-adv-x="534" d="M133 614.5q0 59.5 39 96.5t96 37q55 0 94 -37t39 -96.5t-38.5 -96.5t-94.5 -37q-57 0 -96 37t-39 96.5z" />
<glyph unicode="&#xb8;" horiz-adv-x="561" d="M111 -231q0 29 18 48t47 19q0 -51 90 -51q35 0 57.5 14.5t22.5 38.5q0 45 -72 45h-45q-47 0 -47 41q0 10 6 27l31 78h90l-26 -86h26q63 0 103.5 -30t40.5 -83q0 -74 -58.5 -113t-144.5 -39q-66 0 -102.5 24t-36.5 67z" />
<glyph unicode="&#xb9;" horiz-adv-x="475" d="M100 1323q0 59 58 59h127q61 0 61 -59v-592q0 -59 -67 -59q-61 0 -62 59v533h-59q-58 0 -58 59z" />
<glyph unicode="&#xba;" d="M86 504q0 250 145.5 387t356.5 137t356.5 -137t145.5 -387t-145.5 -385t-356.5 -135t-356.5 135t-145.5 385zM260 506q0 -184 91 -283.5t236.5 -99.5t236.5 99.5t91 283.5q0 182 -91 281.5t-236.5 99.5t-236.5 -99.5t-91 -281.5z" />
<glyph unicode="&#xbb;" horiz-adv-x="1099" d="M139 163.5q0 24.5 19 49.5l243 317l-243 318q-18 25 -18.5 49.5t24 46t59.5 21.5t79 -48.5t157 -197.5l65 -86q39 -51 39 -103q0 -49 -39 -102l-65 -86q-113 -147 -157 -196.5t-79 -49.5t-59.5 21.5t-24.5 46zM537 163.5q0 24.5 18 49.5l244 317l-244 318 q-18 25 -18 49.5t24.5 46t59 21.5t78.5 -48.5t157 -197.5l66 -86q39 -51 39 -103q0 -49 -39 -102l-66 -86q-113 -147 -157 -196.5t-78.5 -49.5t-59 21.5t-24.5 46z" />
<glyph unicode="&#xbc;" horiz-adv-x="2848" d="M143 1315q0 76 84 76h211q86 0 86 -74v-1239q0 -78 -86 -78h-14q-86 0 -86 78v1159h-111q-84 0 -84 78zM729 119l633 1192q24 45 60 44q17 0 36 -9q37 -19 38 -54q0 -20 -13 -45l-633 -1192q-23 -46 -59 -45q-17 0 -37 10q-37 19 -38 54q0 20 13 45zM1642 416q0 41 31 82 l194 238l247 295l196 233q4 6 20 24l22 27l22 24q14 16 24 24l24 16q13 9 27.5 13.5t28.5 4.5h4q76 0 76 -84v-805h106q82 0 82 -78q0 -76 -82 -76h-106v-278q0 -41 -19.5 -58.5t-66.5 -17.5h-12q-45 0 -62.5 17.5t-17.5 58.5v278h-664q-74 1 -74 62zM1862 508h518v618z" />
<glyph unicode="&#xbd;" horiz-adv-x="2676" d="M143 1315q0 76 84 76h211q86 0 86 -74v-1239q0 -78 -86 -78h-14q-86 0 -86 78v1159h-111q-84 0 -84 78zM729 119l633 1192q24 45 60 44q17 0 36 -9q37 -19 38 -54q0 -20 -13 -45l-633 -1192q-23 -46 -59 -45q-17 0 -37 10q-37 19 -38 54q0 20 13 45zM1642 88q0 74 66 123 q406 385 535 535.5t129 263.5q0 111 -77 177t-212 66q-133 0 -209 -81.5t-88 -174.5q-115 0 -115 99q0 125 117 219t315 94q211 0 324 -107.5t113 -273.5q0 -150 -104.5 -284t-467.5 -486l-106 -104h624q86 0 86 -76q0 -78 -86 -78h-760q-84 0 -84 88z" />
<glyph unicode="&#xbe;" horiz-adv-x="3358" d="M82 190q0 76 92 103q59 -156 354 -156q154 0 270.5 69.5t116.5 196.5q0 117 -108.5 177.5t-259.5 60.5h-86q-92 0 -92 74q0 80 92 80h86q127 0 212 64.5t85 176.5q0 86 -71 152.5t-212 66.5q-123 0 -201.5 -55t-107.5 -149q-109 0 -109 90t106.5 179t315.5 89 q238 0 344.5 -104.5t106.5 -245.5q0 -113 -66.5 -200t-169.5 -116q127 -27 217 -110.5t90 -222.5q0 -188 -160.5 -307t-398.5 -119q-199 0 -322.5 57t-123.5 149zM1239 119l633 1192q24 45 60 44q17 0 36 -9q37 -19 38 -54q0 -20 -13 -45l-633 -1192q-23 -46 -59 -45 q-17 0 -37 10q-37 19 -38 54q0 20 13 45zM2152 416q0 41 31 82l194 238l246 295l197 233q4 6 20 24l22 27l22 24q14 16 24 24l24 16q13 9 27.5 13.5t28.5 4.5h4q76 0 76 -84v-805h106q82 0 82 -78q0 -76 -82 -76h-106v-278q0 -41 -19.5 -58.5t-66.5 -17.5h-12 q-45 0 -62.5 17.5t-17.5 58.5v278h-664q-74 1 -74 62zM2372 508h518v618z" />
<glyph unicode="&#xbf;" horiz-adv-x="976" d="M82 346q0 80 40 145.5t97 108.5t113.5 81t96.5 80t40 87v24q0 78 80 78h10q82 0 82 -78v-24q0 -27 -3 -49.5t-13.5 -44t-15.5 -35.5t-24.5 -33.5t-26.5 -29t-35 -29.5l-35 -26l-42 -29l-40 -27l-83 -60q-28 -20 -52.5 -57t-24.5 -76q0 -98 70.5 -157.5t195.5 -59.5 q117 0 178.5 44t93.5 130q47 0 79 -24.5t32 -63.5q0 -94 -108.5 -165.5t-278.5 -71.5q-213 0 -319.5 102t-106.5 260zM422 1269.5q0 59.5 39 96.5t94 37q57 0 96 -37t39 -96.5t-39 -96t-96 -36.5q-55 0 -94 36.5t-39 96z" />
<glyph unicode="&#xc0;" horiz-adv-x="1406" d="M90 102q213 715 465 1172q4 6 14.5 26.5t13.5 24.5t12 18.5t14 17.5t15.5 11t19.5 10t22.5 4.5t29.5 2.5h23q16 0 29.5 -2.5t22.5 -4.5t19.5 -10t15.5 -11t14 -17.5t12.5 -18.5t13.5 -24.5t14 -26.5q252 -457 465 -1172q6 -25 6 -43q0 -59 -63 -59h-49q-16 0 -28.5 3 t-23 12.5t-16.5 15.5t-12 23l-10 26q-3 8 -9 32l-8 31q-55 205 -96 324h-619q-41 -127 -94 -324l-8 -31q-6 -24 -9 -32l-10 -26q-6 -17 -12 -23l-16 -15.5t-22.5 -12.5t-28.5 -3h-50q-63 0 -63 61q0 17 6 41zM449 614h518q-74 203 -260 580q-133 -236 -258 -580zM465 1743 v55q0 37 37 37q18 0 33 -8l368 -219q33 -20 37 -56v-18q0 -31 -35 -31q-14 0 -26 6l-373 166q-41 19 -41 68z" />
<glyph unicode="&#xc1;" horiz-adv-x="1406" d="M90 102q213 715 465 1172q4 6 14.5 26.5t13.5 24.5t12 18.5t14 17.5t15.5 11t19.5 10t22.5 4.5t29.5 2.5h23q16 0 29.5 -2.5t22.5 -4.5t19.5 -10t15.5 -11t14 -17.5t12.5 -18.5t13.5 -24.5t14 -26.5q252 -457 465 -1172q6 -25 6 -43q0 -59 -63 -59h-49q-16 0 -28.5 3 t-23 12.5t-16.5 15.5t-12 23l-10 26q-3 8 -9 32l-8 31q-55 205 -96 324h-619q-41 -127 -94 -324l-8 -31q-6 -24 -9 -32l-10 -26q-6 -17 -12 -23l-16 -15.5t-22.5 -12.5t-28.5 -3h-50q-63 0 -63 61q0 17 6 41zM449 614h518q-74 203 -260 580q-133 -236 -258 -580zM465 1534 v18q0 31 37 56l368 219q10 8 33 8q37 0 37 -37v-55q0 -49 -45 -68l-371 -166q-12 -6 -26 -6q-33 0 -33 31z" />
<glyph unicode="&#xc2;" horiz-adv-x="1406" d="M90 102q213 715 465 1172q4 6 14.5 26.5t13.5 24.5t12 18.5t14 17.5t15.5 11t19.5 10t22.5 4.5t29.5 2.5h23q16 0 29.5 -2.5t22.5 -4.5t19.5 -10t15.5 -11t14 -17.5t12.5 -18.5t13.5 -24.5t14 -26.5q252 -457 465 -1172q6 -25 6 -43q0 -59 -63 -59h-49q-16 0 -28.5 3 t-23 12.5t-16.5 15.5t-12 23l-10 26q-3 8 -9 32l-8 31q-55 205 -96 324h-619q-41 -127 -94 -324l-8 -31q-6 -24 -9 -32l-10 -26q-6 -17 -12 -23l-16 -15.5t-22.5 -12.5t-28.5 -3h-50q-63 0 -63 61q0 17 6 41zM408 1577q0 25 45 55l182 129q29 20 67 21q35 0 68 -23l182 -127 q45 -31 45 -55q0 -49 -61 -49q-29 0 -57 18l-177 109l-176 -109q-29 -18 -57 -18q-61 0 -61 49zM449 614h518q-74 203 -260 580q-133 -236 -258 -580z" />
<glyph unicode="&#xc3;" horiz-adv-x="1406" d="M90 102q213 715 465 1172q4 6 14.5 26.5t13.5 24.5t12 18.5t14 17.5t15.5 11t19.5 10t22.5 4.5t29.5 2.5h23q16 0 29.5 -2.5t22.5 -4.5t19.5 -10t15.5 -11t14 -17.5t12.5 -18.5t13.5 -24.5t14 -26.5q252 -457 465 -1172q6 -25 6 -43q0 -59 -63 -59h-49q-16 0 -28.5 3 t-23 12.5t-16.5 15.5t-12 23l-10 26q-3 8 -9 32l-8 31q-55 205 -96 324h-619q-41 -127 -94 -324l-8 -31q-6 -24 -9 -32l-10 -26q-6 -17 -12 -23l-16 -15.5t-22.5 -12.5t-28.5 -3h-50q-63 0 -63 61q0 17 6 41zM389 1595q0 74 47 111q49 39 125 39q16 0 28.5 -1t27 -4t21.5 -4 t23.5 -7.5t20.5 -8.5t25.5 -11t25.5 -11q74 -33 137 -33q47 0 76 33q18 23 50 14.5t32 -43.5q0 -74 -47 -110q-49 -39 -125 -39q-16 0 -28.5 1t-27 4t-21.5 4t-23.5 7t-20.5 8t-25.5 11.5t-25.5 11.5q-74 33 -137 32q-47 0 -76 -32q-18 -23 -50 -15t-32 43zM449 614h518 q-74 203 -260 580q-133 -236 -258 -580z" />
<glyph unicode="&#xc4;" horiz-adv-x="1406" d="M90 102q213 715 465 1172q4 6 14.5 26.5t13.5 24.5t12 18.5t14 17.5t15.5 11t19.5 10t22.5 4.5t29.5 2.5h23q16 0 29.5 -2.5t22.5 -4.5t19.5 -10t15.5 -11t14 -17.5t12.5 -18.5t13.5 -24.5t14 -26.5q252 -457 465 -1172q6 -25 6 -43q0 -59 -63 -59h-49q-16 0 -28.5 3 t-23 12.5t-16.5 15.5t-12 23l-10 26q-3 8 -9 32l-8 31q-55 205 -96 324h-619q-41 -127 -94 -324l-8 -31q-6 -24 -9 -32l-10 -26q-6 -17 -12 -23l-16 -15.5t-22.5 -12.5t-28.5 -3h-50q-63 0 -63 61q0 17 6 41zM403 1632q0 39 28 64.5t67 25.5t65.5 -25.5t26.5 -64.5 q0 -41 -26.5 -67.5t-65.5 -26.5t-67 26.5t-28 67.5zM449 614h518q-74 203 -260 580q-133 -236 -258 -580zM817 1632q0 39 26.5 64.5t67.5 25.5q37 0 63.5 -25.5t26.5 -64.5q0 -41 -26.5 -67.5t-63.5 -26.5q-41 0 -67.5 26.5t-26.5 67.5z" />
<glyph unicode="&#xc5;" horiz-adv-x="1406" d="M90 102q213 715 465 1172q4 6 14.5 26.5t13.5 24.5t12 18.5t14 17.5t15.5 11t19.5 10t22.5 4.5t29.5 2.5h23q16 0 29.5 -2.5t22.5 -4.5t19.5 -10t15.5 -11t14 -17.5t12.5 -18.5t13.5 -24.5t14 -26.5q252 -457 465 -1172q6 -25 6 -43q0 -59 -63 -59h-49q-16 0 -28.5 3 t-23 12.5t-16.5 15.5t-12 23l-10 26q-3 8 -9 32l-8 31q-55 205 -96 324h-619q-41 -127 -94 -324l-8 -31q-6 -24 -9 -32l-10 -26q-6 -17 -12 -23l-16 -15.5t-22.5 -12.5t-28.5 -3h-50q-63 0 -63 61q0 17 6 41zM449 614h518q-74 203 -260 580q-133 -236 -258 -580zM524 1677 q0 80 49.5 127t129 47t129 -47t49.5 -127t-49.5 -127t-129 -47t-129 47t-49.5 127zM616 1677q0 -43 24 -66.5t62 -23.5q37 0 61.5 25.5t24.5 64.5q0 43 -23.5 66.5t-62 23.5t-62.5 -23.5t-24 -66.5z" />
<glyph unicode="&#xc7;" horiz-adv-x="1431" d="M129 698q0 342 194.5 525.5t483.5 183.5q217 0 357 -86q141 -87 141 -191q0 -45 -34 -72.5t-89 -27.5q-63 217 -375 217q-205 0 -347.5 -138t-142.5 -411q0 -270 143.5 -414.5t346.5 -144.5q315 0 401 232q49 0 77 -28t28 -73q0 -100 -136.5 -190t-345.5 -96l-12 -41h27 q63 0 103 -30t40 -83q0 -74 -58.5 -113t-144.5 -39q-66 0 -102.5 24t-36.5 67q0 29 18.5 48t47.5 19q0 -51 90 -51q35 0 57.5 14.5t22.5 38.5q0 45 -72 45h-45q-47 0 -47 41q0 10 6 27l14 37q-264 20 -437 204t-173 506z" />
<glyph unicode="&#xc8;" horiz-adv-x="1159" d="M207 78v1235q0 78 80 78h706q76 0 76 -78q0 -76 -76 -76h-608v-438h541q76 0 75 -78q0 -76 -75 -76h-541v-491h608q76 0 76 -78q0 -76 -76 -76h-706q-80 0 -80 78zM371 1743v55q0 37 37 37q18 0 32 -8l369 -219q33 -20 37 -56v-18q0 -31 -35 -31q-14 0 -27 6l-372 166 q-41 19 -41 68z" />
<glyph unicode="&#xc9;" horiz-adv-x="1159" d="M207 78v1235q0 78 80 78h706q76 0 76 -78q0 -76 -76 -76h-608v-438h541q76 0 75 -78q0 -76 -75 -76h-541v-491h608q76 0 76 -78q0 -76 -76 -76h-706q-80 0 -80 78zM371 1534v18q0 31 37 56l368 219q10 8 33 8q37 0 37 -37v-55q0 -49 -45 -68l-371 -166q-12 -6 -27 -6 q-32 0 -32 31z" />
<glyph unicode="&#xca;" horiz-adv-x="1159" d="M207 78v1235q0 78 80 78h706q76 0 76 -78q0 -76 -76 -76h-608v-438h541q76 0 75 -78q0 -76 -75 -76h-541v-491h608q76 0 76 -78q0 -76 -76 -76h-706q-80 0 -80 78zM313 1577q0 25 45 55l183 129q29 20 67 21q35 0 68 -23l182 -127q45 -31 45 -55q0 -49 -61 -49 q-29 0 -58 18l-176 109l-176 -109q-29 -18 -57 -18q-62 0 -62 49z" />
<glyph unicode="&#xcb;" horiz-adv-x="1159" d="M207 78v1235q0 78 80 78h706q76 0 76 -78q0 -76 -76 -76h-608v-438h541q76 0 75 -78q0 -76 -75 -76h-541v-491h608q76 0 76 -78q0 -76 -76 -76h-706q-80 0 -80 78zM309 1632q0 39 28 64.5t66.5 25.5t65.5 -25.5t27 -64.5q0 -41 -27 -67.5t-65.5 -26.5t-66.5 26.5 t-28 67.5zM723 1632q0 39 26.5 64.5t67.5 25.5q37 0 63.5 -25.5t26.5 -64.5q0 -41 -26.5 -67.5t-63.5 -26.5q-41 0 -67.5 26.5t-26.5 67.5z" />
<glyph unicode="&#xcc;" horiz-adv-x="575" d="M53 1741v55q0 37 37 37q18 0 33 -8l369 -219q33 -20 36 -56v-18q0 -31 -34 -31q-14 0 -27 6l-373 166q-41 19 -41 68zM205 78v1233q0 80 78 80h18q82 0 82 -80v-1233q0 -78 -82 -78h-18q-78 0 -78 78z" />
<glyph unicode="&#xcd;" horiz-adv-x="575" d="M53 1532v18q0 31 37 56l369 219q10 8 33 8q37 0 36 -37v-55q0 -49 -45 -68l-370 -166q-12 -6 -27 -6q-33 0 -33 31zM205 78v1233q0 80 78 80h18q82 0 82 -80v-1233q0 -78 -82 -78h-18q-78 0 -78 78z" />
<glyph unicode="&#xce;" horiz-adv-x="589" d="M2 1575q0 25 45 55l182 129q29 20 68 21q35 0 68 -23l182 -127q45 -31 45 -55q0 -49 -62 -49q-29 0 -57 18l-176 109l-176 -109q-29 -18 -58 -18q-61 0 -61 49zM207 78v1233q0 80 78 80h18q82 0 82 -80v-1233q0 -78 -82 -78h-18q-78 0 -78 78z" />
<glyph unicode="&#xcf;" horiz-adv-x="573" d="M-10 1630q0 39 27.5 64.5t66.5 25.5t65.5 -25.5t26.5 -64.5q0 -41 -26.5 -67.5t-65.5 -26.5t-66.5 26.5t-27.5 67.5zM201 78v1233q0 80 78 80h18q82 0 82 -80v-1233q0 -78 -82 -78h-18q-78 0 -78 78zM403 1630q0 39 27 64.5t68 25.5q37 0 63.5 -25.5t26.5 -64.5 q0 -41 -26.5 -67.5t-63.5 -26.5q-41 0 -68 26.5t-27 67.5z" />
<glyph unicode="&#xd1;" horiz-adv-x="1550" d="M209 78v1212q0 100 82 101h41q78 0 131 -86l704 -1024v1030q0 43 18.5 61.5t59.5 18.5h19q80 0 79 -80v-1213q0 -43 -20 -70.5t-59 -27.5h-27q-78 0 -150 104l-702 1022v-1048q0 -78 -74 -78h-20q-82 0 -82 78zM449 1565q0 74 47 110q49 39 125 39q16 0 28.5 -1t26.5 -4 t21.5 -4t23.5 -7t20 -8t25.5 -11.5t26.5 -11.5q74 -33 137 -33q47 0 76 33q18 23 49.5 14.5t31.5 -43.5q0 -74 -47 -110q-49 -39 -125 -39q-16 0 -28.5 1t-26.5 4t-21.5 4t-23.5 7t-20 8.5t-25.5 11.5l-26.5 11q-74 33 -137 33q-47 0 -76 -33q-18 -23 -49.5 -14.5 t-31.5 43.5z" />
<glyph unicode="&#xd2;" horiz-adv-x="1570" d="M119 692q0 182 57 324.5t154.5 224.5t213 124t242.5 42t242 -42t212 -124t155.5 -224.5t58.5 -324.5q0 -180 -58.5 -320.5t-155.5 -222t-212 -123.5t-242 -42t-242.5 42t-213 123.5t-154.5 222t-57 320.5zM297 694q0 -266 144.5 -409.5t345 -143.5t345 143.5t144.5 409.5 q0 268 -144.5 411.5t-345 143.5t-345 -143.5t-144.5 -411.5zM553 1741v55q0 37 37 37q18 0 33 -8l368 -219q33 -20 37 -56v-18q0 -31 -35 -31q-14 0 -26 6l-373 166q-41 19 -41 68z" />
<glyph unicode="&#xd3;" horiz-adv-x="1570" d="M119 692q0 182 57 324.5t154.5 224.5t213 124t242.5 42t242 -42t212 -124t155.5 -224.5t58.5 -324.5q0 -180 -58.5 -320.5t-155.5 -222t-212 -123.5t-242 -42t-242.5 42t-213 123.5t-154.5 222t-57 320.5zM297 694q0 -266 144.5 -409.5t345 -143.5t345 143.5t144.5 409.5 q0 268 -144.5 411.5t-345 143.5t-345 -143.5t-144.5 -411.5zM553 1532v18q0 31 37 56l368 219q10 8 33 8q37 0 37 -37v-55q0 -49 -45 -68l-371 -166q-12 -6 -26 -6q-33 0 -33 31z" />
<glyph unicode="&#xd4;" horiz-adv-x="1570" d="M119 692q0 182 57 324.5t154.5 224.5t213 124t242.5 42t242 -42t212 -124t155.5 -224.5t58.5 -324.5q0 -180 -58.5 -320.5t-155.5 -222t-212 -123.5t-242 -42t-242.5 42t-213 123.5t-154.5 222t-57 320.5zM297 694q0 -266 144.5 -409.5t345 -143.5t345 143.5t144.5 409.5 q0 268 -144.5 411.5t-345 143.5t-345 -143.5t-144.5 -411.5zM494 1575q0 25 45 55l182 129q29 20 67 21q35 0 68 -23l182 -127q45 -31 45 -55q0 -49 -61 -49q-29 0 -57 18l-177 109l-176 -109q-29 -18 -57 -18q-61 0 -61 49z" />
<glyph unicode="&#xd5;" horiz-adv-x="1570" d="M119 692q0 182 57 324.5t154.5 224.5t213 124t242.5 42t242 -42t212 -124t155.5 -224.5t58.5 -324.5q0 -180 -58.5 -320.5t-155.5 -222t-212 -123.5t-242 -42t-242.5 42t-213 123.5t-154.5 222t-57 320.5zM297 694q0 -266 144.5 -409.5t345 -143.5t345 143.5t144.5 409.5 q0 268 -144.5 411.5t-345 143.5t-345 -143.5t-144.5 -411.5zM471 1595q0 74 47 111q49 39 125 39q16 0 28.5 -1t27 -4t21.5 -4t23.5 -7.5t20.5 -8.5t25.5 -11t25.5 -11q74 -33 137 -33q47 0 76 33q18 23 50 14.5t32 -43.5q0 -74 -47 -110q-49 -39 -125 -39q-16 0 -28.5 1 t-27 4t-21.5 4t-23.5 7t-20.5 8t-25.5 11.5t-25.5 11.5q-74 33 -137 32q-47 0 -76 -32q-18 -23 -50 -15t-32 43z" />
<glyph unicode="&#xd6;" horiz-adv-x="1570" d="M119 692q0 182 57 324.5t154.5 224.5t213 124t242.5 42t242 -42t212 -124t155.5 -224.5t58.5 -324.5q0 -180 -58.5 -320.5t-155.5 -222t-212 -123.5t-242 -42t-242.5 42t-213 123.5t-154.5 222t-57 320.5zM297 694q0 -266 144.5 -409.5t345 -143.5t345 143.5t144.5 409.5 q0 268 -144.5 411.5t-345 143.5t-345 -143.5t-144.5 -411.5zM487 1630q0 39 28 64.5t67 25.5t65.5 -25.5t26.5 -64.5q0 -41 -26.5 -67.5t-65.5 -26.5t-67 26.5t-28 67.5zM901 1630q0 39 26.5 64.5t67.5 25.5q37 0 63.5 -25.5t26.5 -64.5q0 -41 -26.5 -67.5t-63.5 -26.5 q-41 0 -67.5 26.5t-26.5 67.5z" />
<glyph unicode="&#xd7;" horiz-adv-x="993" d="M186 233.5q0 26.5 29 55.5l223 223l-223 223q-29 29 -29 51q0 27 29 56.5t55 29.5q29 0 56 -26l221 -228l215 226q29 29 55.5 28.5t56 -29t29.5 -55.5q-4 -33 -26 -55l-220 -221l220 -219q23 -23 26 -55q0 -27 -28.5 -56.5t-55.5 -29.5q-31 0 -57 28l-215 226l-219 -226 q-29 -31 -55.5 -30.5t-56.5 29t-30 55z" />
<glyph unicode="&#xd8;" horiz-adv-x="1570" d="M119 692q0 182 57 324.5t154.5 224.5t213 124t242.5 42q223 0 398 -123l82 107q20 26 43 26q19 0 41 -16l8 -6q28 -20 28 -44q0 -18 -16 -38l-88 -115q172 -193 172 -506q0 -180 -58.5 -320.5t-155.5 -222t-212 -123.5t-242 -42q-211 0 -372 102l-113 -143 q-20 -25 -43 -26q-18 0 -39 15l-8 7q-29 22 -29 46q0 17 15 35l114 148q-192 192 -192 524zM297 694q0 -242 123 -387l659 844q-125 98 -293 98q-201 0 -345 -143.5t-144 -411.5zM518 219q117 -78 268 -78q201 0 345.5 143.5t144.5 409.5q0 217 -105 363z" />
<glyph unicode="&#xd9;" horiz-adv-x="1515" d="M199 590v721q0 80 80 80h20q80 0 80 -80v-729q0 -446 379 -446.5t379 446.5v729q0 80 80 80h16q84 0 84 -80v-721q0 -86 -12.5 -162t-48 -161t-95 -145.5t-163 -99t-240.5 -38.5t-240.5 38.5t-163 99t-95.5 145.5t-48 161t-12 162zM524 1741v55q0 37 37 37q18 0 33 -8 l369 -219q33 -20 36 -56v-18q0 -31 -34 -31q-14 0 -27 6l-373 166q-41 19 -41 68z" />
<glyph unicode="&#xda;" horiz-adv-x="1515" d="M199 590v721q0 80 80 80h20q80 0 80 -80v-729q0 -446 379 -446.5t379 446.5v729q0 80 80 80h16q84 0 84 -80v-721q0 -86 -12.5 -162t-48 -161t-95 -145.5t-163 -99t-240.5 -38.5t-240.5 38.5t-163 99t-95.5 145.5t-48 161t-12 162zM524 1532v18q0 31 37 56l369 219 q10 8 33 8q37 0 36 -37v-55q0 -49 -45 -68l-370 -166q-12 -6 -27 -6q-33 0 -33 31z" />
<glyph unicode="&#xdb;" horiz-adv-x="1515" d="M199 590v721q0 80 80 80h20q80 0 80 -80v-729q0 -446 379 -446.5t379 446.5v729q0 80 80 80h16q84 0 84 -80v-721q0 -86 -12.5 -162t-48 -161t-95 -145.5t-163 -99t-240.5 -38.5t-240.5 38.5t-163 99t-95.5 145.5t-48 161t-12 162zM465 1575q0 25 45 55l182 129 q29 20 68 21q35 0 67 -23l183 -127q45 -31 45 -55q0 -49 -62 -49q-29 0 -57 18l-176 109l-176 -109q-29 -18 -58 -18q-61 0 -61 49z" />
<glyph unicode="&#xdc;" horiz-adv-x="1515" d="M199 590v721q0 80 80 80h20q80 0 80 -80v-729q0 -446 379 -446.5t379 446.5v729q0 80 80 80h16q84 0 84 -80v-721q0 -86 -12.5 -162t-48 -161t-95 -145.5t-163 -99t-240.5 -38.5t-240.5 38.5t-163 99t-95.5 145.5t-48 161t-12 162zM459 1630q0 39 27.5 64.5t66.5 25.5 t65.5 -25.5t26.5 -64.5q0 -41 -26.5 -67.5t-65.5 -26.5t-66.5 26.5t-27.5 67.5zM872 1630q0 39 27 64.5t68 25.5q37 0 63.5 -25.5t26.5 -64.5q0 -41 -26.5 -67.5t-63.5 -26.5q-41 0 -68 26.5t-27 67.5z" />
<glyph unicode="&#xdd;" horiz-adv-x="1292" d="M82 1333q0 57 65 58h43q12 0 22.5 -3.5t20 -12.5t16.5 -17t15 -23.5t12.5 -26l13.5 -31t13 -30.5q137 -305 332 -557h22q195 252 332 557q4 10 13.5 30.5t13.5 31t12 26t15.5 23.5l16.5 17t19.5 12.5t22.5 3.5h43q66 0 65 -58q0 -29 -8 -45q-16 -45 -37 -89l-37 -80 q-16 -36 -42 -81l-40 -72q-15 -28 -48 -76t-46.5 -69.5t-52.5 -75.5l-51 -69l-57 -77l-56 -75v-446q0 -78 -80 -78h-18q-80 0 -80 78v446l-55 75l-58 77l-51 69q-39 53 -52 75t-46 70t-48 76l-41 72q-26 45 -42 81l-37 80q-20 44 -37 89q-8 16 -8 45zM408 1563v18 q0 31 36 55l369 219q10 8 33 9q37 0 37 -37v-55q0 -49 -45 -68l-371 -166q-12 -6 -27 -6q-32 0 -32 31z" />
<glyph unicode="&#xdf;" horiz-adv-x="1204" d="M150 72v1001q0 190 106 305t295 115q195 0 315.5 -100.5t120.5 -276.5q0 -109 -72.5 -183.5t-246.5 -172.5l146 -73l112.5 -61.5t97.5 -66.5t60.5 -68.5t45 -88t11.5 -103.5q0 -139 -104.5 -226t-272.5 -87q-131 0 -217 50t-86 124q0 86 78 100q14 -66 80.5 -102.5 t158.5 -36.5q96 0 147.5 48t51.5 122q0 98 -59.5 153.5t-235.5 137.5q-117 55 -150.5 82.5t-33.5 85.5q0 49 49 91t108.5 69.5t108.5 82t49 123.5q0 119 -78 178.5t-184.5 59.5t-170 -71t-63.5 -206v-1005q0 -74 -77 -74h-13q-41 0 -59 17.5t-18 56.5z" />
<glyph unicode="&#xe0;" horiz-adv-x="1101" d="M90 293q0 150 111.5 240t302.5 90q41 0 76.5 -3.5t67.5 -10.5t47 -12l44 -15q29 -10 33 -13v90q0 125 -63.5 177.5t-192.5 52.5q-182 0 -283 -139q-86 12 -86 79q0 78 106.5 137.5t254.5 59.5q434 0 434 -403v-406q0 -113 86 -143q-31 -78 -115 -78q-61 0 -97 44t-36 116 q-129 -172 -334 -172q-166 0 -261 85t-95 224zM258 301q0 -82 58.5 -132t158.5 -50q127 0 212 82t85 198v39q-129 57 -264 58q-115 0 -182.5 -53.5t-67.5 -141.5zM307 1362v55q0 37 37 37q18 0 33 -8l368 -219q33 -20 37 -56v-18q0 -31 -34 -31q-14 0 -27 6l-373 166 q-41 19 -41 68z" />
<glyph unicode="&#xe1;" horiz-adv-x="1101" d="M90 293q0 150 111.5 240t302.5 90q41 0 76.5 -3.5t67.5 -10.5t47 -12l44 -15q29 -10 33 -13v90q0 125 -63.5 177.5t-192.5 52.5q-182 0 -283 -139q-86 12 -86 79q0 78 106.5 137.5t254.5 59.5q434 0 434 -403v-406q0 -113 86 -143q-31 -78 -115 -78q-61 0 -97 44t-36 116 q-129 -172 -334 -172q-166 0 -261 85t-95 224zM258 301q0 -82 58.5 -132t158.5 -50q127 0 212 82t85 198v39q-129 57 -264 58q-115 0 -182.5 -53.5t-67.5 -141.5zM307 1153v18q0 31 37 56l369 219q10 8 32 8q37 0 37 -37v-55q0 -49 -45 -68l-370 -166q-12 -6 -27 -6 q-33 0 -33 31z" />
<glyph unicode="&#xe2;" horiz-adv-x="1101" d="M90 293q0 150 111.5 240t302.5 90q41 0 76.5 -3.5t67.5 -10.5t47 -12l44 -15q29 -10 33 -13v90q0 125 -63.5 177.5t-192.5 52.5q-182 0 -283 -139q-86 12 -86 79q0 78 106.5 137.5t254.5 59.5q434 0 434 -403v-406q0 -113 86 -143q-31 -78 -115 -78q-61 0 -97 44t-36 116 q-129 -172 -334 -172q-166 0 -261 85t-95 224zM248 1196q0 25 45 55l182 129q29 20 68 21q35 0 67 -23l183 -127q45 -31 45 -55q0 -49 -62 -49q-29 0 -57 18l-176 109l-176 -109q-29 -18 -58 -18q-61 0 -61 49zM258 301q0 -82 58.5 -132t158.5 -50q127 0 212 82t85 198v39 q-129 57 -264 58q-115 0 -182.5 -53.5t-67.5 -141.5z" />
<glyph unicode="&#xe3;" horiz-adv-x="1101" d="M90 293q0 150 111.5 240t302.5 90q41 0 76.5 -3.5t67.5 -10.5t47 -12l44 -15q29 -10 33 -13v90q0 125 -63.5 177.5t-192.5 52.5q-182 0 -283 -139q-86 12 -86 79q0 78 106.5 137.5t254.5 59.5q434 0 434 -403v-406q0 -113 86 -143q-31 -78 -115 -78q-61 0 -97 44t-36 116 q-129 -172 -334 -172q-166 0 -261 85t-95 224zM233 1186q0 74 48 110q49 39 125 39q16 0 28 -1t26.5 -4t21.5 -4t23.5 -7t20.5 -8t25.5 -11.5t26.5 -11.5q74 -33 137 -33q47 0 76 33q18 23 49.5 14.5t31.5 -42.5q0 -74 -47 -111q-49 -39 -125 -39q-16 0 -28.5 1t-26.5 4 t-21.5 4t-23.5 7.5t-20.5 8.5t-26 11t-25.5 11q-74 33 -137 33q-47 0 -76 -33q-18 -23 -50 -14.5t-32 43.5zM258 301q0 -82 58.5 -132t158.5 -50q127 0 212 82t85 198v39q-129 57 -264 58q-115 0 -182.5 -53.5t-67.5 -141.5z" />
<glyph unicode="&#xe4;" horiz-adv-x="1101" d="M90 293q0 150 111.5 240t302.5 90q41 0 76.5 -3.5t67.5 -10.5t47 -12l44 -15q29 -10 33 -13v90q0 125 -63.5 177.5t-192.5 52.5q-182 0 -283 -139q-86 12 -86 79q0 78 106.5 137.5t254.5 59.5q434 0 434 -403v-406q0 -113 86 -143q-31 -78 -115 -78q-61 0 -97 44t-36 116 q-129 -172 -334 -172q-166 0 -261 85t-95 224zM244 1251q0 39 27.5 64.5t66.5 25.5t65.5 -25.5t26.5 -64.5q0 -41 -26.5 -67.5t-65.5 -26.5t-66.5 26.5t-27.5 67.5zM258 301q0 -82 58.5 -132t158.5 -50q127 0 212 82t85 198v39q-129 57 -264 58q-115 0 -182.5 -53.5 t-67.5 -141.5zM657 1251q0 39 27 64.5t68 25.5q37 0 63.5 -25.5t26.5 -64.5q0 -41 -27 -67.5t-63 -26.5q-41 0 -68 26.5t-27 67.5z" />
<glyph unicode="&#xe5;" horiz-adv-x="1101" d="M90 293q0 150 111.5 240t302.5 90q41 0 76.5 -3.5t67.5 -10.5t47 -12l44 -15q29 -10 33 -13v90q0 125 -63.5 177.5t-192.5 52.5q-182 0 -283 -139q-86 12 -86 79q0 78 106.5 137.5t254.5 59.5q434 0 434 -403v-406q0 -113 86 -143q-31 -78 -115 -78q-61 0 -97 44t-36 116 q-129 -172 -334 -172q-166 0 -261 85t-95 224zM258 301q0 -82 58.5 -132t158.5 -50q127 0 212 82t85 198v39q-129 57 -264 58q-115 0 -182.5 -53.5t-67.5 -141.5zM369 1268q0 80 49 127t129 47t129 -47t49 -127t-49 -127t-129 -47t-129 47t-49 127zM461 1268 q0 -43 23.5 -66.5t62.5 -23.5q37 0 61.5 25.5t24.5 64.5q0 43 -23.5 66.5t-62.5 23.5t-62.5 -23.5t-23.5 -66.5z" />
<glyph unicode="&#xe7;" horiz-adv-x="1060" d="M88 504q0 137 44 242.5t119 165t161 88t180 28.5q152 0 245 -55t93 -119q0 -78 -88 -88q-20 45 -92 83t-170 38q-137 0 -227.5 -97.5t-90.5 -285.5q0 -184 92 -282.5t221 -98.5q205 0 277 133q39 0 65.5 -23.5t26.5 -60.5q0 -70 -95 -128t-245 -60l-12 -41h26 q63 0 103.5 -30t40.5 -83q0 -74 -58.5 -113t-144.5 -39q-66 0 -102.5 24t-36.5 67q0 29 18.5 48t46.5 19q0 -51 90 -51q35 0 57.5 14.5t22.5 38.5q0 45 -71 45h-45q-47 0 -47 41q0 10 6 27l14 39q-182 23 -303 152t-121 362z" />
<glyph unicode="&#xe8;" horiz-adv-x="1054" d="M86 504q0 254 143.5 389t333.5 135q182 0 291 -95t109 -236.5t-112 -220.5t-288 -79t-317 56q0 -150 102.5 -241t249.5 -91q229 0 287 141q35 0 59.5 -19.5t24.5 -56.5q0 -72 -105.5 -137t-267.5 -65q-217 0 -363.5 131t-146.5 389zM248 580q147 -49 293 -50 q266 0 266 172q0 80 -68.5 135.5t-179.5 55.5q-129 0 -219 -96t-92 -217zM291 1362v55q0 37 37 37q18 0 32 -8l369 -219q33 -20 37 -56v-18q0 -31 -35 -31q-14 0 -26 6l-373 166q-41 19 -41 68z" />
<glyph unicode="&#xe9;" horiz-adv-x="1054" d="M86 504q0 254 143.5 389t333.5 135q182 0 291 -95t109 -236.5t-112 -220.5t-288 -79t-317 56q0 -150 102.5 -241t249.5 -91q229 0 287 141q35 0 59.5 -19.5t24.5 -56.5q0 -72 -105.5 -137t-267.5 -65q-217 0 -363.5 131t-146.5 389zM248 580q147 -49 293 -50 q266 0 266 172q0 80 -68.5 135.5t-179.5 55.5q-129 0 -219 -96t-92 -217zM291 1153v18q0 31 37 56l368 219q10 8 33 8q37 0 37 -37v-55q0 -49 -45 -68l-371 -166q-12 -6 -26 -6q-33 0 -33 31z" />
<glyph unicode="&#xea;" horiz-adv-x="1054" d="M86 504q0 254 143.5 389t333.5 135q182 0 291 -95t109 -236.5t-112 -220.5t-288 -79t-317 56q0 -150 102.5 -241t249.5 -91q229 0 287 141q35 0 59.5 -19.5t24.5 -56.5q0 -72 -105.5 -137t-267.5 -65q-217 0 -363.5 131t-146.5 389zM248 580q147 -49 293 -50 q266 0 266 172q0 80 -68.5 135.5t-179.5 55.5q-129 0 -219 -96t-92 -217zM274 1196q0 25 45 55l183 129q29 20 67 21q35 0 68 -23l182 -127q45 -31 45 -55q0 -49 -61 -49q-29 0 -58 18l-176 109l-176 -109q-29 -18 -57 -18q-62 0 -62 49z" />
<glyph unicode="&#xeb;" horiz-adv-x="1054" d="M86 504q0 254 143.5 389t333.5 135q182 0 291 -95t109 -236.5t-112 -220.5t-288 -79t-317 56q0 -150 102.5 -241t249.5 -91q229 0 287 141q35 0 59.5 -19.5t24.5 -56.5q0 -72 -105.5 -137t-267.5 -65q-217 0 -363.5 131t-146.5 389zM248 580q147 -49 293 -50 q266 0 266 172q0 80 -68.5 135.5t-179.5 55.5q-129 0 -219 -96t-92 -217zM250 1251q0 39 27.5 64.5t66.5 25.5t65.5 -25.5t26.5 -64.5q0 -41 -26.5 -67.5t-65.5 -26.5t-66.5 26.5t-27.5 67.5zM664 1251q0 39 26.5 64.5t67.5 25.5q37 0 63.5 -25.5t26.5 -64.5 q0 -41 -26.5 -67.5t-63.5 -26.5q-41 0 -67.5 26.5t-26.5 67.5z" />
<glyph unicode="&#xec;" horiz-adv-x="555" d="M43 1384v56q0 37 37 37q18 0 33 -9l368 -219q33 -20 37 -55v-18q0 -31 -35 -31q-14 0 -26 6l-373 166q-41 18 -41 67zM190 78v856q0 76 78 76h13q78 0 77 -76v-856q0 -78 -77 -78h-13q-41 0 -59.5 18.5t-18.5 59.5z" />
<glyph unicode="&#xed;" horiz-adv-x="555" d="M43 1176v18q0 31 37 55l369 219q10 8 32 9q37 0 37 -37v-56q0 -49 -45 -67l-371 -166q-12 -6 -26 -6q-33 0 -33 31zM190 78v856q0 76 78 76h13q78 0 77 -76v-856q0 -78 -77 -78h-13q-41 0 -59.5 18.5t-18.5 59.5z" />
<glyph unicode="&#xee;" horiz-adv-x="577" d="M-4 1219q0 25 45 55l182 129q29 20 68 20q35 0 67 -22l183 -127q45 -31 45 -55q0 -49 -62 -50q-29 0 -57 19l-176 108l-176 -108q-29 -18 -58 -19q-61 1 -61 50zM205 78v856q0 76 78 76h12q78 0 78 -76v-856q0 -78 -78 -78h-12q-41 0 -59.5 18.5t-18.5 59.5z" />
<glyph unicode="&#xef;" horiz-adv-x="544" d="M-25 1274q0 39 28 64.5t67 25.5t65.5 -25.5t26.5 -64.5q0 -41 -26.5 -67.5t-65.5 -26.5t-67 26.5t-28 67.5zM193 78v856q0 76 77 76h13q78 0 77 -76v-856q0 -78 -77 -78h-13q-41 0 -59 18.5t-18 59.5zM389 1274q0 39 26.5 64.5t67.5 25.5q37 0 63.5 -25.5t26.5 -64.5 q0 -41 -26.5 -67.5t-63.5 -26.5q-41 0 -67.5 26.5t-26.5 67.5z" />
<glyph unicode="&#xf1;" horiz-adv-x="1140" d="M150 78v854q0 78 77 78h15q78 0 77 -78v-101q39 78 123 137.5t193 59.5q166 0 271.5 -99.5t105.5 -314.5v-536q0 -41 -18.5 -59.5t-59.5 -18.5h-16q-76 0 -76 78v530q0 150 -63.5 213.5t-180.5 63.5q-125 0 -200.5 -98.5t-75.5 -260.5v-448q0 -78 -80 -78h-15 q-41 0 -59 18.5t-18 59.5zM260 1186q0 74 47 110q49 39 125 39q16 0 28.5 -1t27 -4t21.5 -4t23.5 -7t20.5 -8t25.5 -11.5t25.5 -11.5q74 -33 137 -33q47 0 76 33q18 23 50 14.5t32 -42.5q0 -74 -47 -111q-49 -39 -125 -39q-16 0 -28.5 1t-27 4t-21.5 4t-23.5 7.5t-20.5 8.5 t-25.5 11t-25.5 11q-74 33 -137 33q-47 0 -76 -33q-18 -23 -50 -14.5t-32 43.5z" />
<glyph unicode="&#xf2;" d="M86 504q0 250 145.5 387t356.5 137t356.5 -137t145.5 -387t-145.5 -385t-356.5 -135t-356.5 135t-145.5 385zM260 506q0 -184 91 -283.5t236.5 -99.5t236.5 99.5t91 283.5q0 182 -91 281.5t-236.5 99.5t-236.5 -99.5t-91 -281.5zM354 1362v55q0 37 37 37q18 0 33 -8 l369 -219q33 -20 36 -56v-18q0 -31 -34 -31q-14 0 -27 6l-373 166q-41 19 -41 68z" />
<glyph unicode="&#xf3;" d="M86 504q0 250 145.5 387t356.5 137t356.5 -137t145.5 -387t-145.5 -385t-356.5 -135t-356.5 135t-145.5 385zM260 506q0 -184 91 -283.5t236.5 -99.5t236.5 99.5t91 283.5q0 182 -91 281.5t-236.5 99.5t-236.5 -99.5t-91 -281.5zM354 1153v18q0 31 37 56l369 219 q10 8 33 8q37 0 36 -37v-55q0 -49 -45 -68l-370 -166q-12 -6 -27 -6q-33 0 -33 31z" />
<glyph unicode="&#xf4;" d="M86 504q0 250 145.5 387t356.5 137t356.5 -137t145.5 -387t-145.5 -385t-356.5 -135t-356.5 135t-145.5 385zM260 506q0 -184 91 -283.5t236.5 -99.5t236.5 99.5t91 283.5q0 182 -91 281.5t-236.5 99.5t-236.5 -99.5t-91 -281.5zM295 1196q0 25 45 55l182 129 q29 20 68 21q35 0 67 -23l183 -127q45 -31 45 -55q0 -49 -62 -49q-29 0 -57 18l-176 109l-176 -109q-29 -18 -58 -18q-61 0 -61 49z" />
<glyph unicode="&#xf5;" d="M86 504q0 250 145.5 387t356.5 137t356.5 -137t145.5 -387t-145.5 -385t-356.5 -135t-356.5 135t-145.5 385zM260 506q0 -184 91 -283.5t236.5 -99.5t236.5 99.5t91 283.5q0 182 -91 281.5t-236.5 99.5t-236.5 -99.5t-91 -281.5zM274 1186q0 74 48 110q49 39 124 39 q16 0 28.5 -1t27 -4t21.5 -4t23.5 -7t20.5 -8t25.5 -11.5t25.5 -11.5q74 -33 138 -33q47 0 75 33q18 23 50 14.5t32 -42.5q0 -74 -47 -111q-49 -39 -125 -39q-16 0 -28.5 1t-26.5 4t-21.5 4t-23.5 7.5t-20.5 8.5t-26 11t-25.5 11q-74 33 -137 33q-47 0 -76 -33 q-18 -23 -50 -14.5t-32 43.5z" />
<glyph unicode="&#xf6;" d="M86 504q0 250 145.5 387t356.5 137t356.5 -137t145.5 -387t-145.5 -385t-356.5 -135t-356.5 135t-145.5 385zM260 506q0 -184 91 -283.5t236.5 -99.5t236.5 99.5t91 283.5q0 182 -91 281.5t-236.5 99.5t-236.5 -99.5t-91 -281.5zM289 1251q0 39 27.5 64.5t66.5 25.5 t65.5 -25.5t26.5 -64.5q0 -41 -26.5 -67.5t-65.5 -26.5t-66.5 26.5t-27.5 67.5zM702 1251q0 39 27 64.5t68 25.5q37 0 63.5 -25.5t26.5 -64.5q0 -41 -26.5 -67.5t-63.5 -26.5q-41 0 -68 26.5t-27 67.5z" />
<glyph unicode="&#xf7;" horiz-adv-x="1128" d="M119 540.5q0 67.5 76 67.5h737q76 0 76 -67.5t-76 -67.5h-737q-76 0 -76 67.5zM430 225.5q0 59.5 39 96t96 36.5q55 0 94 -36.5t39 -96t-38.5 -96.5t-94.5 -37q-57 0 -96 37t-39 96.5zM430 860.5q0 59.5 39 96t96 36.5q55 0 94 -36.5t39 -96t-38.5 -96.5t-94.5 -37 q-57 0 -96 37t-39 96.5z" />
<glyph unicode="&#xf8;" d="M86 504q0 250 145.5 387t356.5 137q139 0 258 -65l69 94q20 26 44 26q19 0 40 -16l9 -6q28 -20 28 -44q0 -18 -16 -38l-72 -94q141 -145 142 -381q0 -250 -145.5 -385t-356.5 -135q-150 0 -266 67l-84 -110q-20 -25 -44 -26q-18 0 -38 15l-9 7q-29 22 -28 45q0 17 14 36 l86 113q-133 140 -133 373zM260 506q0 -147 59 -242l437 580q-74 43 -168 43q-145 0 -236.5 -99.5t-91.5 -281.5zM412 170q76 -47 176 -47q145 0 236 99.5t91 283.5q0 150 -65 248z" />
<glyph unicode="&#xf9;" horiz-adv-x="1144" d="M125 395v537q0 76 78 76h14q78 0 78 -76v-526q0 -281 248 -281q94 0 158.5 55.5t89 131t24.5 163.5v457q0 76 80 76h14q41 0 58.5 -17.5t17.5 -58.5v-856q0 -41 -18.5 -58.5t-59.5 -17.5h-12q-80 0 -80 76v102q-29 -66 -122 -130t-199 -64q-369 -1 -369 411zM313 1362v55 q0 37 37 37q18 0 33 -8l369 -219q33 -20 36 -56v-18q0 -31 -34 -31q-14 0 -27 6l-373 166q-41 19 -41 68z" />
<glyph unicode="&#xfa;" horiz-adv-x="1144" d="M125 395v537q0 76 78 76h14q78 0 78 -76v-526q0 -281 248 -281q94 0 158.5 55.5t89 131t24.5 163.5v457q0 76 80 76h14q41 0 58.5 -17.5t17.5 -58.5v-856q0 -41 -18.5 -58.5t-59.5 -17.5h-12q-80 0 -80 76v102q-29 -66 -122 -130t-199 -64q-369 -1 -369 411zM344 1153v18 q0 31 37 56l369 219q10 8 32 8q37 0 37 -37v-55q0 -49 -45 -68l-371 -166q-12 -6 -26 -6q-33 0 -33 31z" />
<glyph unicode="&#xfb;" horiz-adv-x="1144" d="M125 395v537q0 76 78 76h14q78 0 78 -76v-526q0 -281 248 -281q94 0 158.5 55.5t89 131t24.5 163.5v457q0 76 80 76h14q41 0 58.5 -17.5t17.5 -58.5v-856q0 -41 -18.5 -58.5t-59.5 -17.5h-12q-80 0 -80 76v102q-29 -66 -122 -130t-199 -64q-369 -1 -369 411zM268 1196 q0 25 45 55l183 129q29 20 67 21q35 0 68 -23l182 -127q45 -31 45 -55q0 -49 -61 -49q-29 0 -58 18l-176 109l-176 -109q-29 -18 -57 -18q-62 0 -62 49z" />
<glyph unicode="&#xfc;" horiz-adv-x="1144" d="M125 395v537q0 76 78 76h14q78 0 78 -76v-526q0 -281 248 -281q94 0 158.5 55.5t89 131t24.5 163.5v457q0 76 80 76h14q41 0 58.5 -17.5t17.5 -58.5v-856q0 -41 -18.5 -58.5t-59.5 -17.5h-12q-80 0 -80 76v102q-29 -66 -122 -130t-199 -64q-369 -1 -369 411zM264 1251 q0 39 27.5 64.5t66.5 25.5t66 -25.5t27 -64.5q0 -41 -27 -67.5t-66 -26.5t-66.5 26.5t-27.5 67.5zM678 1251q0 39 26.5 64.5t67.5 25.5q37 0 63.5 -25.5t26.5 -64.5q0 -41 -26.5 -67.5t-63.5 -26.5q-41 0 -67.5 26.5t-26.5 67.5z" />
<glyph unicode="&#xfd;" horiz-adv-x="1058" d="M55 963q0 45 64 45h39q66 0 80 -64q125 -492 276 -794h18q172 424 277 794q18 63 80 64h33q63 0 63 -45q0 -12 -6 -29q-238 -741 -516 -1331q-16 -35 -33.5 -50.5t-54.5 -15.5h-51q-49 0 -50 47q0 14 13 37l98 193q66 127 90 188h-4q-10 2 -20.5 5t-16.5 6t-13 10.5 t-11 10.5t-10.5 14l-8.5 14.5t-9 18.5t-9 19q-158 315 -312 834q-6 17 -6 29zM291 1153v18q0 31 37 56l368 219q10 8 33 8q37 0 37 -37v-55q0 -49 -45 -68l-371 -166q-12 -6 -26 -6q-33 0 -33 31z" />
<glyph unicode="&#xff;" horiz-adv-x="1058" d="M55 963q0 45 64 45h39q66 0 80 -64q125 -492 276 -794h18q172 424 277 794q18 63 80 64h33q63 0 63 -45q0 -12 -6 -29q-238 -741 -516 -1331q-16 -35 -33.5 -50.5t-54.5 -15.5h-51q-49 0 -50 47q0 14 13 37l98 193q66 127 90 188h-4q-10 2 -20.5 5t-16.5 6t-13 10.5 t-11 10.5t-10.5 14l-8.5 14.5t-9 18.5t-9 19q-158 315 -312 834q-6 17 -6 29zM229 1251q0 39 28 64.5t66.5 25.5t65.5 -25.5t27 -64.5q0 -41 -27 -67.5t-65.5 -26.5t-66.5 26.5t-28 67.5zM643 1251q0 39 26.5 64.5t67.5 25.5q37 0 63.5 -25.5t26.5 -64.5q0 -41 -26.5 -67.5 t-63.5 -26.5q-41 0 -67.5 26.5t-26.5 67.5z" />
<glyph unicode="&#x152;" horiz-adv-x="2752" d="M119 692q0 182 57 324.5t154.5 224.5t213 124t242.5 42t242 -42t212 -124t155.5 -224.5t58.5 -324.5q0 -180 -58.5 -320.5t-155.5 -222t-212 -123.5t-242 -42t-242.5 42t-213 123.5t-154.5 222t-57 320.5zM297 694q0 -266 144.5 -409.5t345 -143.5t345 143.5t144.5 409.5 q0 268 -144.5 411.5t-345 143.5t-345 -143.5t-144.5 -411.5zM1778 78v1235q0 78 80 78h706q76 0 76 -78q0 -76 -76 -76h-608v-438h541q76 0 75 -78q0 -76 -75 -76h-541v-491h608q76 0 76 -78q0 -76 -76 -76h-706q-80 0 -80 78z" />
<glyph unicode="&#x153;" horiz-adv-x="2230" d="M86 504q0 250 145.5 387t356.5 137t356.5 -137t145.5 -387t-145.5 -385t-356.5 -135t-356.5 135t-145.5 385zM260 506q0 -184 91 -283.5t236.5 -99.5t236.5 99.5t91 283.5q0 182 -91 281.5t-236.5 99.5t-236.5 -99.5t-91 -281.5zM1262 504q0 254 143 389t334 135 q182 0 290.5 -95t108.5 -236.5t-111.5 -220.5t-287.5 -79t-318 56q0 -150 102.5 -241t250.5 -91q229 0 286 141q35 0 59.5 -19.5t24.5 -56.5q0 -72 -105.5 -137t-266.5 -65q-217 0 -363.5 131t-146.5 389zM1423 580q147 -49 293 -50q266 0 266 172q0 80 -68.5 135.5 t-178.5 55.5q-129 0 -219.5 -96t-92.5 -217z" />
<glyph unicode="&#x178;" horiz-adv-x="1292" d="M82 1333q0 57 65 58h43q12 0 22.5 -3.5t20 -12.5t16.5 -17t15 -23.5t12.5 -26l13.5 -31t13 -30.5q137 -305 332 -557h22q195 252 332 557q4 10 13.5 30.5t13.5 31t12 26t15.5 23.5l16.5 17t19.5 12.5t22.5 3.5h43q66 0 65 -58q0 -29 -8 -45q-16 -45 -37 -89l-37 -80 q-16 -36 -42 -81l-40 -72q-15 -28 -48 -76t-46.5 -69.5t-52.5 -75.5l-51 -69l-57 -77l-56 -75v-446q0 -78 -80 -78h-18q-80 0 -80 78v446l-55 75l-58 77l-51 69q-39 53 -52 75t-46 70t-48 76l-41 72q-26 45 -42 81l-37 80q-20 44 -37 89q-8 16 -8 45zM346 1661 q0 39 27.5 64.5t66.5 25.5t65.5 -25.5t26.5 -64.5q0 -41 -26.5 -67.5t-65.5 -26.5t-66.5 26.5t-27.5 67.5zM760 1661q0 39 26.5 64.5t67.5 25.5q37 0 63.5 -25.5t26.5 -64.5q0 -41 -26.5 -67.5t-63.5 -26.5q-41 0 -67.5 26.5t-26.5 67.5z" />
<glyph unicode="&#x2c6;" horiz-adv-x="813" d="M113 1196q0 25 45 55l182 129q29 20 68 21q35 0 67 -23l182 -127q45 -31 45 -55q0 -49 -61 -49q-29 0 -57 18l-176 109l-177 -109q-29 -18 -57 -18q-61 0 -61 49z" />
<glyph unicode="&#x2dc;" horiz-adv-x="817" d="M94 1186q0 74 47 110q49 39 125 39q16 0 28.5 -1t27 -4t21.5 -4t23.5 -7t20.5 -8t25.5 -11.5t25.5 -11.5q74 -33 137 -33q47 0 76 33q18 23 50 14.5t32 -42.5q0 -74 -47 -111q-49 -39 -125 -39q-16 0 -28.5 1t-26.5 4t-21.5 4t-24 7.5t-20.5 8.5t-25.5 11t-25.5 11 q-74 33 -137 33q-47 0 -76 -33q-18 -23 -50 -14.5t-32 43.5z" />
<glyph unicode="&#x2013;" horiz-adv-x="1200" d="M102 602.5q0 67.5 76 67.5h844q76 0 76 -67.5t-76 -67.5h-844q-76 0 -76 67.5z" />
<glyph unicode="&#x2014;" horiz-adv-x="1734" d="M102 602.5q0 67.5 76 67.5h1378q76 0 76 -67.5t-76 -67.5h-1378q-76 0 -76 67.5z" />
<glyph unicode="&#x2018;" horiz-adv-x="399" d="M41 1118q0 131 67.5 224.5t161.5 93.5q68 0 68 -50q-68 -16 -112 -72.5t-44 -135.5q16 8 47 8q41 0 68 -33t27 -78q0 -55 -39 -92t-97 -37q-59 0 -103 46t-44 126z" />
<glyph unicode="&#x2019;" horiz-adv-x="399" d="M61 995q68 16 112 72.5t44 136.5q-16 -8 -47 -8q-41 0 -67.5 33t-26.5 78q0 55 39 92t96 37q59 0 103 -46.5t44 -125.5q0 -131 -67.5 -224.5t-161.5 -93.5q-68 0 -68 49z" />
<glyph unicode="&#x201a;" horiz-adv-x="534" d="M119 -190q68 16 111.5 72.5t43.5 135.5q-16 -8 -47 -8q-41 0 -67.5 33t-26.5 78q0 55 39 92t96 37q59 0 103.5 -46t44.5 -126q0 -131 -67.5 -224.5t-162.5 -93.5q-67 1 -67 50z" />
<glyph unicode="&#x201c;" horiz-adv-x="786" d="M61 1118q0 131 68 224.5t162 93.5q68 0 67 -50q-68 -16 -111.5 -72.5t-43.5 -135.5q16 8 47 8q41 0 67.5 -33t26.5 -78q0 -55 -39 -92t-96 -37q-59 0 -103.5 46t-44.5 126zM408 1118q0 131 67.5 224.5t161.5 93.5q68 0 68 -50q-68 -16 -112 -72.5t-44 -135.5q16 8 47 8 q41 0 67.5 -33t26.5 -78q0 -55 -39 -92t-96 -37q-59 0 -103 46t-44 126z" />
<glyph unicode="&#x201d;" horiz-adv-x="786" d="M82 995q68 16 112 72.5t44 136.5q-16 -8 -48 -8q-41 0 -67.5 33t-26.5 78q0 55 39 92t96 37q59 0 103.5 -46.5t44.5 -125.5q0 -131 -67.5 -224.5t-161.5 -93.5q-68 0 -68 49zM428 995q68 16 112 72.5t44 136.5q-16 -8 -47 -8q-41 0 -68 33t-27 78q0 55 39 92t97 37 q59 0 103 -46.5t44 -125.5q0 -131 -67.5 -224.5t-161.5 -93.5q-68 0 -68 49z" />
<glyph unicode="&#x201e;" horiz-adv-x="786" d="M82 -190q68 16 112 72.5t44 135.5q-16 -8 -48 -8q-41 0 -67.5 33t-26.5 78q0 55 39 92t96 37q59 0 103.5 -46t44.5 -126q0 -131 -67.5 -224.5t-161.5 -93.5q-68 1 -68 50zM428 -190q68 16 112 72.5t44 135.5q-16 -8 -47 -8q-41 0 -68 33t-27 78q0 55 39 92t97 37 q59 0 103 -46t44 -126q0 -131 -67.5 -224.5t-161.5 -93.5q-68 1 -68 50z" />
<glyph unicode="&#x2022;" horiz-adv-x="598" d="M100 707q0 86 57.5 142t141.5 56t141.5 -56t57.5 -142t-57.5 -141.5t-141.5 -55.5t-141.5 55.5t-57.5 141.5z" />
<glyph unicode="&#x2026;" horiz-adv-x="1363" d="M133 116.5q0 59.5 39 96.5t96 37q55 0 94 -37t39 -96.5t-38.5 -96t-94.5 -36.5q-57 0 -96 36.5t-39 96zM557 116.5q0 59.5 39 96.5t96 37q55 0 94 -37t39 -96.5t-38.5 -96t-94.5 -36.5q-57 0 -96 36.5t-39 96zM963 116.5q0 59.5 38.5 96.5t96.5 37q55 0 94 -37t39 -96.5 t-39 -96t-94 -36.5q-57 0 -96 36.5t-39 96z" />
<glyph unicode="&#x2039;" horiz-adv-x="700" d="M137 530.5q0 53.5 39 102.5q190 252 225 289q45 43 76 43q35 0 59.5 -21.5t24.5 -46.5t-18 -49l-244 -318l244 -317q18 -25 18 -49.5t-24.5 -46t-59.5 -21.5t-84 54.5t-168 211.5l-49 66q-39 49 -39 102.5z" />
<glyph unicode="&#x203a;" horiz-adv-x="700" d="M139 163.5q0 24.5 19 49.5l243 317l-243 318q-18 25 -18.5 49.5t24 46t59.5 21.5t79 -48.5t157 -197.5l65 -86q39 -51 39 -103q0 -49 -39 -102l-65 -86q-113 -147 -157 -196.5t-79 -49.5t-59.5 21.5t-24.5 46z" />
<glyph unicode="&#x20ac;" horiz-adv-x="1366" d="M70 518q0 78 75 78h117q-4 33 -4 102v60h-111q-78 0 -77 78q0 76 75 75h134q47 240 197.5 368t363.5 128q197 0 311.5 -71.5t114.5 -190.5q0 -53 -35 -83t-88 -34q-6 109 -84 166t-221 57q-139 0 -239.5 -87t-141.5 -253h481q76 0 76 -75q0 -72 -76 -78h-502 q-2 -23 -2 -66q0 -49 6 -96h498q41 0 58.5 -17.5t17.5 -60.5q0 -70 -76 -76h-471q47 -150 145.5 -228.5t227.5 -78.5q145 0 227 59.5t92 170.5q47 -4 81 -36t34 -75q0 -113 -120 -190.5t-314 -77.5q-205 0 -352.5 117.5t-200.5 338.5h-140q-77 0 -77 76z" />
<glyph unicode="&#x2122;" horiz-adv-x="1603" d="M90 1343.5q0 47.5 45 47.5h477q43 0 43 -47.5t-43 -47.5h-184v-555q0 -49 -51 -49h-10q-45 0 -45 49v555h-187q-45 0 -45 47.5zM750 741q0 201 4 607q0 43 45 43h67q66 0 88 -56l152 -538l84 298q53 194 67 240q16 55 86 56h72q47 0 47 -43v-607q0 -49 -45 -49h-18 q-45 0 -45 49v535h-8l-164 -541q-14 -43 -56 -43h-41q-43 0 -55 43l-166 541h-8q0 -90 1 -268.5t1 -266.5q0 -49 -45 -49h-16q-47 0 -47 49z" />
<glyph unicode="&#xe000;" horiz-adv-x="1010" d="M0 1010h1010v-1010h-1010v1010z" />
<glyph unicode="&#xfb01;" horiz-adv-x="1302" d="M63 934q0 41 18.5 55.5t59.5 14.5h107v65q0 190 104.5 295.5t286.5 105.5q94 0 156.5 -43t62.5 -108q0 -63 -65 -86q-51 86 -177 86q-100 0 -150 -79t-50 -216v-20h252q78 0 77 -70q0 -68 -77 -68h-252v-798q0 -41 -18.5 -58.5t-59.5 -17.5h-10q-43 0 -61.5 17.5 t-18.5 58.5v798h-107q-43 0 -60.5 13.5t-17.5 54.5zM922 1298.5q0 47.5 32.5 81t79.5 33.5q45 0 79 -33.5t34 -81.5q0 -45 -33 -78.5t-80 -33.5t-79.5 32.5t-32.5 80zM950 78v856q0 76 78 76h12q78 0 78 -76v-856q0 -78 -78 -78h-12q-78 0 -78 78z" />
<glyph unicode="&#xfb02;" horiz-adv-x="1259" d="M63 934q0 41 18.5 55.5t59.5 14.5h107v65q0 190 104.5 295.5t286.5 105.5q94 0 156.5 -43t62.5 -108q0 -63 -65 -86q-51 86 -177 86q-100 0 -150 -79t-50 -216v-20h252q78 0 77 -70q0 -68 -77 -68h-252v-798q0 -41 -18.5 -58.5t-59.5 -17.5h-10q-43 0 -61.5 17.5 t-18.5 58.5v798h-107q-43 0 -60.5 13.5t-17.5 54.5zM928 78v1282q0 41 17.5 58.5t60.5 17.5h14q78 0 78 -76v-1282q0 -78 -78 -78h-14q-43 0 -60.5 18.5t-17.5 59.5z" />
<glyph unicode="&#xfb03;" horiz-adv-x="2068" d="M63 934q0 41 18.5 55.5t59.5 14.5h107v65q0 190 104.5 295.5t286.5 105.5q94 0 156.5 -43t62.5 -108q0 -63 -65 -86q-51 86 -177 86q-100 0 -150 -79t-50 -216v-20h252q78 0 77 -70q0 -68 -77 -68h-252v-798q0 -41 -18.5 -58.5t-59.5 -17.5h-10q-43 0 -61.5 17.5 t-18.5 58.5v798h-107q-43 0 -60.5 13.5t-17.5 54.5zM829 934q0 41 18.5 55.5t59.5 14.5h107v65q0 190 104.5 295.5t286.5 105.5q94 0 156.5 -43t62.5 -108q0 -63 -65 -86q-51 86 -177 86q-100 0 -150 -79t-50 -216v-20h252q78 0 77 -70q0 -68 -77 -68h-252v-798 q0 -41 -18.5 -58.5t-59.5 -17.5h-10q-43 0 -61.5 17.5t-18.5 58.5v798h-107q-43 0 -60.5 13.5t-17.5 54.5zM1688 1298.5q0 47.5 32.5 81t79.5 33.5q45 0 79 -33.5t34 -81.5q0 -45 -33 -78.5t-80 -33.5t-79.5 32.5t-32.5 80zM1716 78v856q0 76 78 76h12q78 0 78 -76v-856 q0 -78 -78 -78h-12q-78 0 -78 78z" />
<glyph unicode="&#xfb04;" horiz-adv-x="2025" d="M63 934q0 41 18.5 55.5t59.5 14.5h107v65q0 190 104.5 295.5t286.5 105.5q94 0 156.5 -43t62.5 -108q0 -63 -65 -86q-51 86 -177 86q-100 0 -150 -79t-50 -216v-20h252q78 0 77 -70q0 -68 -77 -68h-252v-798q0 -41 -18.5 -58.5t-59.5 -17.5h-10q-43 0 -61.5 17.5 t-18.5 58.5v798h-107q-43 0 -60.5 13.5t-17.5 54.5zM829 934q0 41 18.5 55.5t59.5 14.5h107v65q0 190 104.5 295.5t286.5 105.5q94 0 156.5 -43t62.5 -108q0 -63 -65 -86q-51 86 -177 86q-100 0 -150 -79t-50 -216v-20h252q78 0 77 -70q0 -68 -77 -68h-252v-798 q0 -41 -18.5 -58.5t-59.5 -17.5h-10q-43 0 -61.5 17.5t-18.5 58.5v798h-107q-43 0 -60.5 13.5t-17.5 54.5zM1694 78v1282q0 41 17.5 58.5t60.5 17.5h14q78 0 78 -76v-1282q0 -78 -78 -78h-14q-43 0 -60.5 18.5t-17.5 59.5z" />
</font>
</defs>
</svg>
